<?xml version="1.0" encoding="UTF-8"?>
<svg version="1.1" xmlns="http://www.w3.org/2000/svg" width="64" height="64">
<path d="M0 0 C1.98 0 3.96 0 6 0 C7.36884358 4.51718381 6.47075246 7.58774263 5 12 C5.99 12 6.98 12 8 12 C8 9.69 8 7.38 8 5 C8.99 5 9.98 5 11 5 C11 7.31 11 9.62 11 12 C11.99 12 12.98 12 14 12 C14 9.36 14 6.72 14 4 C17.85756507 1.84694043 20.55129785 0.60746746 25 1 C25.625 3.375 25.625 3.375 26 6 C25.34 6.66 24.68 7.32 24 8 C21.38419521 7.6730244 19.35921863 7.17960932 17 6 C17 7.98 17 9.96 17 12 C17.61875 12.12375 18.2375 12.2475 18.875 12.375 C21 13 21 13 23 15 C23 15.99 23 16.98 23 18 C24.98 18 26.96 18 29 18 C28.34 17.01 27.68 16.02 27 15 C27.375 12.3125 27.375 12.3125 28 10 C29.65614657 9.61781233 31.32457024 9.28604898 33 9 C34 10 34 10 34.25 12.1875 C33.94224613 15.64973106 32.68106492 17.98809202 31 21 C28.36 21 25.72 21 23 21 C23 21.99 23 22.98 23 24 C25.31 24 27.62 24 30 24 C30 24.99 30 25.98 30 27 C27.69 27 25.38 27 23 27 C23 27.99 23 28.98 23 30 C23.69867188 29.84402344 24.39734375 29.68804688 25.1171875 29.52734375 C26.02726562 29.33269531 26.93734375 29.13804688 27.875 28.9375 C29.23238281 28.64166016 29.23238281 28.64166016 30.6171875 28.33984375 C33 28 33 28 35 29 C35 30.98 35 32.96 35 35 C30.48281619 36.36884358 27.41225737 35.47075246 23 34 C23 34.99 23 35.98 23 37 C25.31 37 27.62 37 30 37 C30 37.99 30 38.98 30 40 C27.69 40 25.38 40 23 40 C23 40.99 23 41.98 23 43 C25.64 43 28.28 43 31 43 C33.15305957 46.85756507 34.39253254 49.55129785 34 54 C31.625 54.625 31.625 54.625 29 55 C28.34 54.34 27.68 53.68 27 53 C27.3269756 50.38419521 27.82039068 48.35921863 29 46 C27.02 46 25.04 46 23 46 C22.9071875 46.928125 22.9071875 46.928125 22.8125 47.875 C22 50 22 50 19.4375 51.25 C18.633125 51.4975 17.82875 51.745 17 52 C17 53.98 17 55.96 17 58 C17.99 57.34 18.98 56.68 20 56 C22.6875 56.375 22.6875 56.375 25 57 C25.38218767 58.65614657 25.71395102 60.32457024 26 62 C25 63 25 63 22.8125 63.25 C19.35026894 62.94224613 17.01190798 61.68106492 14 60 C14 57.36 14 54.72 14 52 C13.01 52 12.02 52 11 52 C11 54.31 11 56.62 11 59 C10.01 59 9.02 59 8 59 C8 56.69 8 54.38 8 52 C7.01 52 6.02 52 5 52 C5.23396484 53.04800781 5.23396484 53.04800781 5.47265625 54.1171875 C5.66730469 55.02726562 5.86195312 55.93734375 6.0625 56.875 C6.35833984 58.23238281 6.35833984 58.23238281 6.66015625 59.6171875 C7 62 7 62 6 64 C4.02 64 2.04 64 0 64 C-1.36884358 59.48281619 -0.47075246 56.41225737 1 52 C0.01 52 -0.98 52 -2 52 C-2 54.31 -2 56.62 -2 59 C-2.99 59 -3.98 59 -5 59 C-5 56.69 -5 54.38 -5 52 C-5.99 52 -6.98 52 -8 52 C-8 54.64 -8 57.28 -8 60 C-11.85756507 62.15305957 -14.55129785 63.39253254 -19 63 C-19.625 60.625 -19.625 60.625 -20 58 C-19.34 57.34 -18.68 56.68 -18 56 C-15.38419521 56.3269756 -13.35921863 56.82039068 -11 58 C-11 56.02 -11 54.04 -11 52 C-11.928125 51.814375 -11.928125 51.814375 -12.875 51.625 C-15 51 -15 51 -17 49 C-17 48.01 -17 47.02 -17 46 C-18.98 46 -20.96 46 -23 46 C-22.34 46.99 -21.68 47.98 -21 49 C-21.375 51.6875 -21.375 51.6875 -22 54 C-23.65614657 54.38218767 -25.32457024 54.71395102 -27 55 C-28 54 -28 54 -28.25 51.8125 C-27.94224613 48.35026894 -26.68106492 46.01190798 -25 43 C-22.36 43 -19.72 43 -17 43 C-17 42.01 -17 41.02 -17 40 C-19.31 40 -21.62 40 -24 40 C-24 39.01 -24 38.02 -24 37 C-21.69 37 -19.38 37 -17 37 C-17 36.01 -17 35.02 -17 34 C-17.69867188 34.15597656 -18.39734375 34.31195313 -19.1171875 34.47265625 C-20.48230469 34.76462891 -20.48230469 34.76462891 -21.875 35.0625 C-23.23238281 35.35833984 -23.23238281 35.35833984 -24.6171875 35.66015625 C-27 36 -27 36 -29 35 C-29 33.02 -29 31.04 -29 29 C-24.48281619 27.63115642 -21.41225737 28.52924754 -17 30 C-17 29.01 -17 28.02 -17 27 C-19.31 27 -21.62 27 -24 27 C-24 26.01 -24 25.02 -24 24 C-21.69 24 -19.38 24 -17 24 C-17 23.01 -17 22.02 -17 21 C-19.64 21 -22.28 21 -25 21 C-27.15305957 17.14243493 -28.39253254 14.44870215 -28 10 C-25.625 9.375 -25.625 9.375 -23 9 C-22.34 9.66 -21.68 10.32 -21 11 C-21.3269756 13.61580479 -21.82039068 15.64078137 -23 18 C-21.02 18 -19.04 18 -17 18 C-16.87625 17.38125 -16.7525 16.7625 -16.625 16.125 C-16 14 -16 14 -14 12 C-13.01 12 -12.02 12 -11 12 C-11 10.02 -11 8.04 -11 6 C-11.99 6.66 -12.98 7.32 -14 8 C-16.6875 7.625 -16.6875 7.625 -19 7 C-19.38218767 5.34385343 -19.71395102 3.67542976 -20 2 C-19 1 -19 1 -16.8125 0.75 C-13.35026894 1.05775387 -11.01190798 2.31893508 -8 4 C-8 6.64 -8 9.28 -8 12 C-7.01 12 -6.02 12 -5 12 C-5 9.69 -5 7.38 -5 5 C-4.01 5 -3.02 5 -2 5 C-2 7.31 -2 9.62 -2 12 C-1.01 12 -0.02 12 1 12 C0.84402344 11.30132812 0.68804688 10.60265625 0.52734375 9.8828125 C0.33269531 8.97273437 0.13804688 8.06265625 -0.0625 7.125 C-0.35833984 5.76761719 -0.35833984 5.76761719 -0.66015625 4.3828125 C-1 2 -1 2 0 0 Z M-14 17 C-14.31234892 20.0764574 -14.31234892 20.0764574 -14.265625 23.6875 C-14.26753845 24.34580811 -14.2694519 25.00411621 -14.27142334 25.68237305 C-14.2727845 27.0743854 -14.26909283 28.46641047 -14.26074219 29.85839844 C-14.250041 31.99182589 -14.26063906 34.12441131 -14.2734375 36.2578125 C-14.27211589 37.60937686 -14.26955347 38.9609407 -14.265625 40.3125 C-14.26336914 41.54613281 -14.26111328 42.77976562 -14.25878906 44.05078125 C-14.30769767 47.12069578 -14.30769767 47.12069578 -12 49 C-8.9235426 49.31234892 -8.9235426 49.31234892 -5.3125 49.265625 C-4.65419189 49.26753845 -3.99588379 49.2694519 -3.31762695 49.27142334 C-1.9256146 49.2727845 -0.53358953 49.26909283 0.85839844 49.26074219 C2.99182589 49.250041 5.12441131 49.26063906 7.2578125 49.2734375 C8.60937686 49.27211589 9.9609407 49.26955347 11.3125 49.265625 C12.54613281 49.26336914 13.77976562 49.26111328 15.05078125 49.25878906 C18.12069578 49.30769767 18.12069578 49.30769767 20 47 C20.31234892 43.9235426 20.31234892 43.9235426 20.265625 40.3125 C20.26753845 39.65419189 20.2694519 38.99588379 20.27142334 38.31762695 C20.2727845 36.9256146 20.26909283 35.53358953 20.26074219 34.14160156 C20.250041 32.00817411 20.26063906 29.87558869 20.2734375 27.7421875 C20.27211589 26.39062314 20.26955347 25.0390593 20.265625 23.6875 C20.26336914 22.45386719 20.26111328 21.22023438 20.25878906 19.94921875 C20.30769767 16.87930422 20.30769767 16.87930422 18 15 C14.9235426 14.68765108 14.9235426 14.68765108 11.3125 14.734375 C10.65419189 14.73246155 9.99588379 14.7305481 9.31762695 14.72857666 C7.9256146 14.7272155 6.53358953 14.73090717 5.14160156 14.73925781 C3.00817411 14.749959 0.87558869 14.73936094 -1.2578125 14.7265625 C-2.60937686 14.72788411 -3.9609407 14.73044653 -5.3125 14.734375 C-7.16294922 14.73775879 -7.16294922 14.73775879 -9.05078125 14.74121094 C-12.12069578 14.69230233 -12.12069578 14.69230233 -14 17 Z " fill="#A020F0" transform="translate(29,0)"/>
<path d="M0 0 C2.0625 0.4375 2.0625 0.4375 4 1 C4.50838564 3.03959477 5.00633886 5.08179138 5.5 7.125 C5.7784375 8.26195312 6.056875 9.39890625 6.34375 10.5703125 C6.96453765 13.81466698 7.12006768 16.70814457 7 20 C6.01 20 5.02 20 4 20 C3.67 18.35 3.34 16.7 3 15 C2.01 14.67 1.02 14.34 0 14 C-0.33 15.98 -0.66 17.96 -1 20 C-1.99 20 -2.98 20 -4 20 C-2.62131519 2.62131519 -2.62131519 2.62131519 0 0 Z M1 7 C2 11 2 11 2 11 Z " fill="#A020F0" transform="translate(24,22)"/>
<path d="M0 0 C2.97 0 5.94 0 9 0 C9 0.99 9 1.98 9 3 C8.01 3 7.02 3 6 3 C6 7.62 6 12.24 6 17 C6.99 17 7.98 17 9 17 C9 17.99 9 18.98 9 20 C6.03 20 3.06 20 0 20 C0 19.01 0 18.02 0 17 C0.99 17 1.98 17 3 17 C3 12.38 3 7.76 3 3 C2.01 3 1.02 3 0 3 C0 2.01 0 1.02 0 0 Z " fill="#A020F0" transform="translate(33,22)"/>
</svg>
