<?xml version="1.0" encoding="UTF-8"?>
<svg version="1.1" xmlns="http://www.w3.org/2000/svg" width="64" height="64">
<path d="M0 0 C1.98 0 3.96 0 6 0 C6.33 0.99 6.66 1.98 7 3 C8.485 3.4640625 8.485 3.4640625 10 3.9375 C10.99 4.288125 11.98 4.63875 13 5 C13.33 6.32 13.66 7.64 14 9 C22.25 9 30.5 9 39 9 C39.33 6.69 39.66 4.38 40 2 C42.875 1.375 42.875 1.375 46 1 C48 3 48 3 48.1875 5.5625 C48 8 48 8 47 9 C47.969375 9.28875 48.93875 9.5775 49.9375 9.875 C53 11 53 11 54 13 C54.11125698 15.80909841 54.16411563 18.59264945 54.16796875 21.40234375 C54.17296135 22.65260094 54.17296135 22.65260094 54.17805481 23.92811584 C54.18312161 25.69255012 54.18546321 27.456994 54.18530273 29.22143555 C54.18748841 31.92317469 54.20564426 34.62450506 54.22460938 37.32617188 C54.22754348 39.0390611 54.22952816 40.75195227 54.23046875 42.46484375 C54.23765427 43.2742894 54.24483978 44.08373505 54.25224304 44.91770935 C54.23639392 48.80245573 54.20486601 50.69270098 52 54 C49.37302936 54.22137393 46.99106036 54.28162025 44.375 54.1875 C43.66859375 54.17396484 42.9621875 54.16042969 42.234375 54.14648438 C40.48925872 54.1111104 38.74453392 54.05730221 37 54 C37 55.65 37 57.3 37 59 C39.31 59 41.62 59 44 59 C43.67 59.99 43.34 60.98 43 62 C32.11 62 21.22 62 10 62 C10 61.01 10 60.02 10 59 C11.98 59 13.96 59 16 59 C16 57.35 16 55.7 16 54 C14.72382813 54.02320313 13.44765625 54.04640625 12.1328125 54.0703125 C10.4635475 54.08906829 8.7942762 54.10726869 7.125 54.125 C5.86236328 54.15013672 5.86236328 54.15013672 4.57421875 54.17578125 C3.76855469 54.18222656 2.96289062 54.18867187 2.1328125 54.1953125 C1.01737061 54.21102295 1.01737061 54.21102295 -0.12060547 54.22705078 C-2 54 -2 54 -4 52 C-4.22705078 48.92724609 -4.22705078 48.92724609 -4.1953125 45.0234375 C-4.1924826 44.33819 -4.18965271 43.6529425 -4.18673706 42.94692993 C-4.17553281 40.75610973 -4.15042859 38.56569684 -4.125 36.375 C-4.11497048 34.8906309 -4.10584458 33.4062554 -4.09765625 31.921875 C-4.07559294 28.28111739 -4.04106176 24.64059844 -4 21 C-3.01 21 -2.02 21 -1 21 C-1 28.59 -1 36.18 -1 44 C0.65 44 2.3 44 4 44 C4 41.69 4 39.38 4 37 C10.15234375 36.90234375 10.15234375 36.90234375 12 37 C13 38 13 38 13.0625 41.5625 C13.041875 42.696875 13.02125 43.83125 13 45 C13.66 45 14.32 45 15 45 C14.98839844 44.00097656 14.97679688 43.00195312 14.96484375 41.97265625 C14.95582031 40.68230469 14.94679688 39.39195313 14.9375 38.0625 C14.92589844 36.77472656 14.91429688 35.48695312 14.90234375 34.16015625 C15 31 15 31 16 30 C18.67058851 29.85884839 21.32432238 29.95752893 24 30 C24 34.95 24 39.9 24 45 C24.99 45 25.98 45 27 45 C27 40.38 27 35.76 27 31 C29.64 31 32.28 31 35 31 C35 35.62 35 40.24 35 45 C35.99 45 36.98 45 38 45 C38 43.02 38 41.04 38 39 C38.99 39 39.98 39 41 39 C41 40.98 41 42.96 41 45 C41.99 45 42.98 45 44 45 C44 36.75 44 28.5 44 20 C43.01 20 42.02 20 41 20 C41 25.61 41 31.22 41 37 C40.01 37 39.02 37 38 37 C38 30.73 38 24.46 38 18 C40.97 18 43.94 18 47 18 C47 26.58 47 35.16 47 44 C48.32 44 49.64 44 51 44 C50.67 34.1 50.34 24.2 50 14 C47.69 13.67 45.38 13.34 43 13 C42.505 12.01 42.505 12.01 42 11 C37.9964167 15.84710557 35.29029013 19.80660737 34 26 C32.1875 26.625 32.1875 26.625 30 27 C29.01 26.34 28.02 25.68 27 25 C27 24.34 27 23.68 27 23 C26.319375 23.28875 25.63875 23.5775 24.9375 23.875 C22 25 22 25 18.3125 26 C14.95649429 26.72845517 14.95649429 26.72845517 13 29 C12.71125 30.010625 12.4225 31.02125 12.125 32.0625 C11 35 11 35 9.0625 36 C7 36 7 36 4 34 C3.6875 31.5 3.6875 31.5 4 29 C6 27 6 27 8.9375 26.0625 C11.9465108 25.01855748 13.14541666 24.5036875 15 22 C16.19027984 19.40084462 16.19027984 19.40084462 17 17 C18.98 17 20.96 17 23 17 C23.33 17.66 23.66 18.32 24 19 C27.12290635 18.51421457 29.99580359 18.0013988 33 17 C33.66 16.01 34.32 15.02 35 14 C28.07 13.67 21.14 13.34 14 13 C13.67 14.65 13.34 16.3 13 18 C12 19 12 19 9.4375 19.0625 C8.633125 19.041875 7.82875 19.02125 7 19 C6.67 20.32 6.34 21.64 6 23 C4.35 23 2.7 23 1 23 C0.67 21.68 0.34 20.36 0 19 C-1.98 19 -3.96 19 -6 19 C-7.125 16.6875 -7.125 16.6875 -8 14 C-7.34 13.01 -6.68 12.02 -6 11 C-6.28604898 9.32457024 -6.61781233 7.65614657 -7 6 C-6.67 5.34 -6.34 4.68 -6 4 C-4.02 4 -2.04 4 0 4 C0 2.68 0 1.36 0 0 Z M3 3 C3 3.99 3 4.98 3 6 C2.01 6.495 2.01 6.495 1 7 C2.32 6.67 3.64 6.34 5 6 C4.34 5.01 3.68 4.02 3 3 Z M43 4 C43 4.99 43 5.98 43 7 C43.66 6.34 44.32 5.68 45 5 C44.34 4.67 43.68 4.34 43 4 Z M-4 7 C-3.01 7.99 -2.02 8.98 -1 10 C-0.67 9.01 -0.34 8.02 0 7 C-1.32 7 -2.64 7 -4 7 Z M6 7 C6.26393501 10.43230448 6.26393501 10.43230448 7 14 C8.485 14.99 8.485 14.99 10 16 C10 13.03 10 10.06 10 7 C8.68 7 7.36 7 6 7 Z M2 10 C2 10.99 2 11.98 2 13 C2.99 13 3.98 13 5 13 C5 12.01 5 11.02 5 10 C4.01 10 3.02 10 2 10 Z M-3 13 C-3.33 13.99 -3.66 14.98 -4 16 C-3.01 15.67 -2.02 15.34 -1 15 C-1.66 14.34 -2.32 13.68 -3 13 Z M2 17 C2.99 18.485 2.99 18.485 4 20 C4 19.01 4 18.02 4 17 C3.34 17 2.68 17 2 17 Z M18 20 C18.33 20.66 18.66 21.32 19 22 C19.66 22 20.32 22 21 22 C21 21.34 21 20.68 21 20 C20.01 20 19.02 20 18 20 Z M30 21 C30 21.99 30 22.98 30 24 C30.66 24 31.32 24 32 24 C32 23.01 32 22.02 32 21 C31.34 21 30.68 21 30 21 Z M8 30 C8 30.99 8 31.98 8 33 C8.66 32.34 9.32 31.68 10 31 C9.34 30.67 8.68 30.34 8 30 Z M18 33 C18 36.96 18 40.92 18 45 C18.99 45 19.98 45 21 45 C21 41.04 21 37.08 21 33 C20.01 33 19.02 33 18 33 Z M30 34 C30 37.63 30 41.26 30 45 C30.66 45 31.32 45 32 45 C32 41.37 32 37.74 32 34 C31.34 34 30.68 34 30 34 Z M7 40 C7 41.32 7 42.64 7 44 C7.99 44 8.98 44 10 44 C10 42.68 10 41.36 10 40 C9.01 40 8.02 40 7 40 Z M-1 47 C-1 48.32 -1 49.64 -1 51 C15.83 51 32.66 51 50 51 C50.33 49.68 50.66 48.36 51 47 C33.84 47 16.68 47 -1 47 Z M19 54 C19 55.65 19 57.3 19 59 C23.95 59 28.9 59 34 59 C34 57.35 34 55.7 34 54 C29.05 54 24.1 54 19 54 Z " fill="#FFFFFF" transform="translate(9,1)"/>
</svg>
