<?xml version="1.0" encoding="UTF-8"?>
<svg version="1.1" xmlns="http://www.w3.org/2000/svg" width="64" height="64">
<path d="M0 0 C1.28583984 0.10054687 1.28583984 0.10054687 2.59765625 0.203125 C5.36061292 0.84889117 6.3063269 1.44173618 7.9375 3.75 C9.22726833 8.85713636 9.70273493 14.09276222 6.9375 18.75 C3.67409896 22.01340104 -0.59397679 21.70074069 -5.0625 21.75 C-8.37369615 20.85321771 -9.65174949 20.16075051 -12.0625 17.75 C-13.19797913 12.57624429 -13.85780529 7.4578826 -11.0625 2.75 C-7.72913815 -0.58336185 -4.53855268 -0.41072875 0 0 Z M-3.0625 1.75 C-3.0625 3.07 -3.0625 4.39 -3.0625 5.75 C-2.4025 5.75 -1.7425 5.75 -1.0625 5.75 C-1.0625 4.43 -1.0625 3.11 -1.0625 1.75 C-1.7225 1.75 -2.3825 1.75 -3.0625 1.75 Z M-7.0625 5.75 C-6.7325 6.41 -6.4025 7.07 -6.0625 7.75 C-5.7325 7.09 -5.4025 6.43 -5.0625 5.75 C-5.7225 5.75 -6.3825 5.75 -7.0625 5.75 Z M0.9375 5.75 C1.5975 6.41 2.2575 7.07 2.9375 7.75 C2.9375 7.09 2.9375 6.43 2.9375 5.75 C2.2775 5.75 1.6175 5.75 0.9375 5.75 Z M-4.0625 8.75 C-4.0625 10.07 -4.0625 11.39 -4.0625 12.75 C-2.7425 12.75 -1.4225 12.75 -0.0625 12.75 C-0.0625 11.43 -0.0625 10.11 -0.0625 8.75 C-1.3825 8.75 -2.7025 8.75 -4.0625 8.75 Z M-11.0625 9.75 C-11.0625 10.41 -11.0625 11.07 -11.0625 11.75 C-9.7425 11.75 -8.4225 11.75 -7.0625 11.75 C-7.0625 11.09 -7.0625 10.43 -7.0625 9.75 C-8.3825 9.75 -9.7025 9.75 -11.0625 9.75 Z M2.9375 9.75 C2.9375 10.41 2.9375 11.07 2.9375 11.75 C4.2575 11.75 5.5775 11.75 6.9375 11.75 C6.9375 11.09 6.9375 10.43 6.9375 9.75 C5.6175 9.75 4.2975 9.75 2.9375 9.75 Z M-7.0625 13.75 C-7.0625 14.41 -7.0625 15.07 -7.0625 15.75 C-6.4025 15.42 -5.7425 15.09 -5.0625 14.75 C-5.7225 14.42 -6.3825 14.09 -7.0625 13.75 Z M1.9375 13.75 C1.6075 14.41 1.2775 15.07 0.9375 15.75 C1.5975 15.75 2.2575 15.75 2.9375 15.75 C2.6075 15.09 2.2775 14.43 1.9375 13.75 Z M-3.0625 15.75 C-3.0625 17.07 -3.0625 18.39 -3.0625 19.75 C-2.4025 19.75 -1.7425 19.75 -1.0625 19.75 C-1.0625 18.43 -1.0625 17.11 -1.0625 15.75 C-1.7225 15.75 -2.3825 15.75 -3.0625 15.75 Z " fill="#A020F0" transform="translate(34.0625,21.25)"/>
<path d="M0 0 C7.26 0 14.52 0 22 0 C22 5.28 22 10.56 22 16 C20.02 16 18.04 16 16 16 C16 17.32 16 18.64 16 20 C12.7 20 9.4 20 6 20 C6 18.68 6 17.36 6 16 C4.02 16 2.04 16 0 16 C0 10.72 0 5.44 0 0 Z M2 3 C2 5.31 2 7.62 2 10 C7.94 10 13.88 10 20 10 C20 7.69 20 5.38 20 3 C18.17883997 1.17883997 15.69328236 1.8676492 13.2734375 1.86328125 C12.14808594 1.86908203 12.14808594 1.86908203 11 1.875 C10.24976563 1.87113281 9.49953125 1.86726563 8.7265625 1.86328125 C5.06393883 1.52324459 5.06393883 1.52324459 2 3 Z M2 12 C2.33 12.66 2.66 13.32 3 14 C8.28 14 13.56 14 19 14 C19.33 13.34 19.66 12.68 20 12 C14.06 12 8.12 12 2 12 Z M9 16 C9 16.66 9 17.32 9 18 C10.32 18 11.64 18 13 18 C13 17.34 13 16.68 13 16 C11.68 16 10.36 16 9 16 Z " fill="#A020F0" transform="translate(2,42)"/>
<path d="M0 0 C7.26 0 14.52 0 22 0 C22 3.96 22 7.92 22 12 C22.66 12 23.32 12 24 12 C24.042721 13.66611905 24.04063832 15.33382885 24 17 C22.28432208 18.71567792 20.02627265 18.13015825 17.6875 18.1328125 C16.61242187 18.13410156 15.53734375 18.13539062 14.4296875 18.13671875 C13.29789063 18.13285156 12.16609375 18.12898438 11 18.125 C9.86820313 18.12886719 8.73640625 18.13273437 7.5703125 18.13671875 C6.49523437 18.13542969 5.42015625 18.13414063 4.3125 18.1328125 C3.31863281 18.13168457 2.32476562 18.13055664 1.30078125 18.12939453 C-1 18 -1 18 -2 17 C-2.04063832 15.33382885 -2.042721 13.66611905 -2 12 C-1.34 12 -0.68 12 0 12 C0 8.04 0 4.08 0 0 Z M2 2 C2 5.3 2 8.6 2 12 C8.33008086 12.79126011 13.7121347 13.04797755 20 12 C20 8.7 20 5.4 20 2 C14.06 2 8.12 2 2 2 Z M1 14 C1 14.66 1 15.32 1 16 C7.6 16 14.2 16 21 16 C21 15.34 21 14.68 21 14 C14.4 14 7.8 14 1 14 Z " fill="#A020F0" transform="translate(38,2)"/>
<path d="M0 0 C4.62 0 9.24 0 14 0 C14 7.26 14 14.52 14 22 C9.38 22 4.76 22 0 22 C0 14.74 0 7.48 0 0 Z M2 3 C1.97315321 5.64590014 1.95323643 8.29153096 1.9375 10.9375 C1.92912109 11.69224609 1.92074219 12.44699219 1.91210938 13.22460938 C1.90347559 15.14994313 1.94775667 17.07535581 2 19 C2.97910585 20.19695276 2.97910585 20.19695276 4.8125 20.1328125 C5.534375 20.13023438 6.25625 20.12765625 7 20.125 C7.721875 20.12757812 8.44375 20.13015625 9.1875 20.1328125 C11.02089415 20.19695276 11.02089415 20.19695276 12 19 C12.07319621 16.30345146 12.09242537 13.63308542 12.0625 10.9375 C12.05798828 10.17888672 12.05347656 9.42027344 12.04882812 8.63867188 C12.0370068 6.75908129 12.01907078 4.87953101 12 3 C11.67 3.66 11.34 4.32 11 5 C8.36 5 5.72 5 3 5 C2.67 4.34 2.34 3.68 2 3 Z " fill="#A020F0" transform="translate(48,40)"/>
<path d="M0 0 C5.94 0 11.88 0 18 0 C18 7.26 18 14.52 18 22 C12.06 22 6.12 22 0 22 C0 14.74 0 7.48 0 0 Z M2 3 C1.90018786 5.6773138 1.86120125 8.32304175 1.875 11 C1.87113281 11.75023437 1.86726562 12.50046875 1.86328125 13.2734375 C1.52324459 16.93606117 1.52324459 16.93606117 3 20 C4.99799572 20.09873816 6.99957158 20.12971799 9 20.125 C10.093125 20.12757812 11.18625 20.13015625 12.3125 20.1328125 C14.91830354 20.30547755 14.91830354 20.30547755 16 19 C16.09981214 16.3226862 16.13879875 13.67695825 16.125 11 C16.12886719 10.24976563 16.13273437 9.49953125 16.13671875 8.7265625 C16.47675541 5.06393883 16.47675541 5.06393883 15 2 C13.00200428 1.90126184 11.00042842 1.87028201 9 1.875 C7.906875 1.87242188 6.81375 1.86984375 5.6875 1.8671875 C3.08169646 1.69452245 3.08169646 1.69452245 2 3 Z " fill="#A020F0" transform="translate(2,2)"/>
<path d="M0 0 C0.66 0 1.32 0 2 0 C2 2.31 2 4.62 2 7 C6.29 7 10.58 7 15 7 C15 7.66 15 8.32 15 9 C10.05 9 5.1 9 0 9 C0 6.03 0 3.06 0 0 Z " fill="#A020F0" transform="translate(31,45)"/>
<path d="M0 0 C3.63 0 7.26 0 11 0 C11 2.31 11 4.62 11 7 C10.34 7 9.68 7 9 7 C9 5.35 9 3.7 9 2 C6.03 2 3.06 2 0 2 C0 1.34 0 0.68 0 0 Z " fill="#A020F0" transform="translate(22,12)"/>
<path d="M0 0 C2.64 0 5.28 0 8 0 C8 0.66 8 1.32 8 2 C6.02 2 4.04 2 2 2 C2 4.31 2 6.62 2 9 C1.34 9 0.68 9 0 9 C0 6.03 0 3.06 0 0 Z " fill="#A020F0" transform="translate(11,31)"/>
<path d="M0 0 C0.66 0 1.32 0 2 0 C2 3.3 2 6.6 2 10 C0.35 10 -1.3 10 -3 10 C-3 9.34 -3 8.68 -3 8 C-2.01 8 -1.02 8 0 8 C0 5.36 0 2.72 0 0 Z " fill="#A020F0" transform="translate(48,22)"/>
<path d="M0 0 C0.66 0 1.32 0 2 0 C2 0.66 2 1.32 2 2 C1.34 2 0.68 2 0 2 C0 1.34 0 0.68 0 0 Z " fill="#A020F0" transform="translate(10,18)"/>
</svg>
