<?xml version="1.0" encoding="UTF-8"?>
<svg version="1.1" xmlns="http://www.w3.org/2000/svg" width="512" height="512">
<path d="M0 0 C0.75792847 -0.00478363 1.51585693 -0.00956726 2.29675293 -0.01449585 C3.89365727 -0.01788696 5.49063178 -0.0087395 7.08740234 0.01220703 C9.52469402 0.03899046 11.95738192 0.01243943 14.39453125 -0.01953125 C15.95053095 -0.016227 17.50652779 -0.00982045 19.0625 0 C19.78659058 -0.01012115 20.51068115 -0.02024231 21.25671387 -0.03067017 C25.17089678 0.05949316 26.88472094 0.5462236 29.97143555 3.02856445 C32.28062672 5.98313583 32.86500174 7.78681579 33.34375 11.4765625 C33.48167969 12.51941406 33.61960938 13.56226563 33.76171875 14.63671875 C34.09251598 18.35219484 34.17457618 21.93758176 34.03125 25.6640625 C35.206875 25.7878125 35.206875 25.7878125 36.40625 25.9140625 C40.46382615 26.75356101 43.96888287 28.18706532 47.76171875 29.82421875 C50.09684971 30.83758824 50.09684971 30.83758824 53.03125 30.6640625 C54.52774808 29.50334377 56.01895115 28.33386678 57.46020508 27.10522461 C65.89452425 19.9384208 65.89452425 19.9384208 70.84375 19.6015625 C76.31464377 20.37044487 79.33439629 23.83202972 83.03125 27.6640625 C84.295554 28.91151828 85.56275126 30.15604511 86.83203125 31.3984375 C89.54325346 34.06624156 92.24962476 36.73834758 94.93359375 39.43359375 C95.50585693 40.00698486 96.07812012 40.58037598 96.66772461 41.17114258 C99.28233056 44.03386691 99.42372565 46.70262013 99.37451172 50.52490234 C98.77046373 54.28924694 96.54754833 56.6746127 94.09375 59.4765625 C90.43831047 63.68542629 90.43831047 63.68542629 88.03125 68.6640625 C88.98103927 71.28007341 88.98103927 71.28007341 90.40625 74.0390625 C92.16446636 77.60460741 93.41563238 80.72697306 94.03125 84.6640625 C95.26101562 84.76203125 96.49078125 84.86 97.7578125 84.9609375 C99.39070712 85.11108873 101.02351548 85.26218022 102.65625 85.4140625 C103.86861328 85.506875 103.86861328 85.506875 105.10546875 85.6015625 C105.89824219 85.67890625 106.69101562 85.75625 107.5078125 85.8359375 C108.23049316 85.8987793 108.95317383 85.96162109 109.69775391 86.02636719 C112.03125 86.6640625 112.03125 86.6640625 114.76590538 88.6727438 C118.44738843 90.91783793 120.34664474 91.1636451 124.61026001 91.16285706 C126.57025185 91.17722305 126.57025185 91.17722305 128.56983948 91.19187927 C130.00570912 91.18238311 131.44157642 91.17252926 132.87744141 91.16235352 C134.39891593 91.16617899 135.92038683 91.17179999 137.44184875 91.17907715 C140.71091686 91.191009 143.97966367 91.19055324 147.24873734 91.18048286 C152.41719346 91.16490529 157.58532028 91.17861066 162.75375366 91.19651794 C172.78845009 91.22731364 182.8230455 91.22883944 192.85778046 91.22686768 C205.63816849 91.22547396 218.41847926 91.23578298 231.19880998 91.2754454 C236.33762879 91.29039195 241.4761557 91.29009992 246.61497903 91.27796757 C249.80881477 91.27326275 253.00253831 91.28076654 256.19635582 91.29151154 C257.67823428 91.29392111 259.16013139 91.29117022 260.64198875 91.28290367 C262.66336952 91.27230066 264.68482597 91.28175253 266.70620728 91.29225159 C267.83775049 91.29166528 268.96929371 91.29107897 270.13512611 91.29047489 C273.38207257 91.70931711 274.75193855 92.34047552 277.03125 94.6640625 C277.90406149 98.09296476 278.36047829 100.55665827 277.34375 103.9765625 C275.70555839 106.08280886 274.51987123 106.68461751 272.03125 107.6640625 C269.14960098 107.91015816 269.14960098 107.91015816 265.74176025 107.90457153 C264.44889603 107.90732086 263.1560318 107.91007019 261.82398987 107.91290283 C260.39340117 107.90582496 258.96281341 107.89855535 257.53222656 107.89111328 C256.02426664 107.89054907 254.51630616 107.89086591 253.00834656 107.89199829 C248.91569064 107.89257243 244.8231518 107.88080815 240.73052311 107.86685038 C236.45306554 107.85435331 232.17560533 107.85317332 227.89813232 107.85079956 C219.79860791 107.84458178 211.69913744 107.82816693 203.59963679 107.80810058 C194.37844531 107.78575085 185.15725127 107.77475048 175.93603945 107.76470971 C156.96774571 107.74380097 137.99950219 107.7086192 119.03125 107.6640625 C119.07765625 108.97761719 119.1240625 110.29117188 119.171875 111.64453125 C119.20940266 113.38018554 119.24580175 115.11586449 119.28125 116.8515625 C119.31476563 117.71587891 119.34828125 118.58019531 119.3828125 119.47070312 C119.44737463 123.68338239 119.41911346 126.02284993 117.1953125 129.69921875 C111.15016336 135.18786499 101.72540414 134.25854536 94.03125 134.6640625 C93.84949219 135.293125 93.66773438 135.9221875 93.48046875 136.5703125 C93.22910156 137.42625 92.97773438 138.2821875 92.71875 139.1640625 C92.4609375 140.08574219 92.203125 141.00742188 91.9375 141.95703125 C91.03125 144.6640625 91.03125 144.6640625 89.8125 146.65234375 C88.45609501 148.9146335 87.91733001 149.99833473 88.03125 152.6640625 C90.90913769 157.42688247 94.39489945 161.46918752 98.03125 165.6640625 C99.5860169 168.77359629 99.31769437 171.22673011 99.03125 174.6640625 C95.83570027 180.434504 91.18912451 184.80363663 86.53125 189.4140625 C85.77199219 190.18105469 85.01273438 190.94804687 84.23046875 191.73828125 C83.49441406 192.47175781 82.75835937 193.20523438 82 193.9609375 C81.33419922 194.62448242 80.66839844 195.28802734 79.98242188 195.97167969 C76.93339312 198.61630773 74.70887024 199.57588449 70.69921875 200.09765625 C65.98238951 199.5400758 63.84229642 197.76859634 60.34375 194.7265625 C55.76949203 190.41911301 55.76949203 190.41911301 50.03125 188.6640625 C47.33282336 189.59702395 47.33282336 189.59702395 44.59375 191.0390625 C41.0459999 192.80553612 37.95694232 194.05134101 34.03125 194.6640625 C33.95777344 196.30955078 33.95777344 196.30955078 33.8828125 197.98828125 C33.80774409 199.44273175 33.73219803 200.89715766 33.65625 202.3515625 C33.6253125 203.07279297 33.594375 203.79402344 33.5625 204.53710938 C33.27070601 209.86234976 32.85950753 213.84193651 28.92016602 217.76806641 C25.24541317 220.17980735 22.90963528 220.19437348 18.53515625 220.23046875 C17.82399155 220.23666733 17.11282684 220.24286591 16.38011169 220.24925232 C14.88159549 220.25633034 13.38300031 220.25321164 11.88452148 220.24047852 C9.60316829 220.22661971 7.32592851 220.26069243 5.04492188 220.29882812 C3.58333234 220.29977957 2.12173771 220.29791913 0.66015625 220.29296875 C-0.65911865 220.29369385 -1.97839355 220.29441895 -3.33764648 220.29516602 C-8.062109 219.47403137 -9.64104593 218.05676938 -12.96875 214.6640625 C-13.9921875 211.83203125 -13.9921875 211.83203125 -14.34375 208.8515625 C-14.47265625 207.80871094 -14.6015625 206.76585937 -14.734375 205.69140625 C-15.02161444 201.98123018 -15.11176144 198.38236002 -14.96875 194.6640625 C-15.62101563 194.48230469 -16.27328125 194.30054688 -16.9453125 194.11328125 C-20.96408392 192.95743991 -24.61798401 191.84594116 -28.34375 189.9140625 C-30.76324952 188.49491331 -30.76324952 188.49491331 -32.80859375 188.8046875 C-35.8342821 190.00839715 -37.75681534 191.97583348 -40.15625 194.1640625 C-44.36277879 197.68072057 -47.33337063 199.67645695 -52.80078125 200.15234375 C-59.79504313 198.57705954 -64.90756864 191.99114219 -69.71875 187.1015625 C-70.48574219 186.33392578 -71.25273438 185.56628906 -72.04296875 184.77539062 C-80.76120163 175.98820862 -80.76120163 175.98820862 -80.79296875 169.43359375 C-79.59260161 165.40013262 -76.91863996 163.07480306 -74.09375 160.0390625 C-70.20554246 155.91858519 -70.20554246 155.91858519 -69.03662109 150.61669922 C-70.249122 145.92197499 -72.64310014 141.88231017 -74.96875 137.6640625 C-74.96875 136.6740625 -74.96875 135.6840625 -74.96875 134.6640625 C-76.36287109 134.59058594 -76.36287109 134.59058594 -77.78515625 134.515625 C-93.90160878 133.54090733 -93.90160878 133.54090733 -98.1328125 129.69921875 C-100.73865143 125.39126801 -100.40982211 121.77901816 -100.21875 116.8515625 C-100.20070312 115.96791016 -100.18265625 115.08425781 -100.1640625 114.17382812 C-100.11713513 112.00343707 -100.04539731 109.83360731 -99.96875 107.6640625 C-104.75645673 107.73289838 -109.54328659 107.82084279 -114.33032227 107.92651367 C-115.95880409 107.95976786 -117.58740131 107.98779834 -119.21606445 108.01049805 C-121.55730361 108.04403607 -123.89748486 108.09634835 -126.23828125 108.15234375 C-126.96650589 108.15873367 -127.69473053 108.1651236 -128.44502258 108.17170715 C-132.31210481 108.23097731 -132.31210481 108.23097731 -135.66133457 109.9482919 C-137.9884491 113.00225211 -137.38202088 116.87844665 -137.35643005 120.5710144 C-137.36181559 121.49293268 -137.36720113 122.41485096 -137.37274987 123.36470616 C-137.38710597 126.46706713 -137.37990684 129.569006 -137.37280273 132.67138672 C-137.37850234 134.89029282 -137.385465 137.10919598 -137.39360046 139.32809448 C-137.4115933 145.36529213 -137.41035185 151.40234492 -137.40465808 157.43956137 C-137.40157473 162.47452636 -137.40764922 167.50946318 -137.41369683 172.54442418 C-137.42856576 185.10042832 -137.42491166 197.65634492 -137.41283352 210.21234252 C-137.40290329 221.11786939 -137.41583633 232.02322656 -137.43976771 242.92872725 C-137.46414976 254.12388964 -137.47336871 265.31899047 -137.46711498 276.51418316 C-137.46373878 282.80045183 -137.46620439 289.0865803 -137.48336601 295.37282944 C-137.49879873 301.28422484 -137.49492024 307.1952956 -137.47606087 313.10667801 C-137.47236466 315.27830695 -137.4755133 317.44995975 -137.48594666 319.62156677 C-137.49908764 322.58246992 -137.4876699 325.54228745 -137.46995544 328.50314331 C-137.47956045 329.36588706 -137.48916546 330.22863081 -137.49906152 331.11751831 C-137.44908719 335.1674506 -137.28029695 337.17213481 -135.06242466 340.67411995 C-131.39430697 344.160499 -128.28019612 343.80793744 -123.4589262 343.79828358 C-122.27753844 343.80181192 -122.27753844 343.80181192 -121.07228425 343.80541155 C-118.4050841 343.81212479 -115.7379324 343.81164263 -113.07072449 343.81123352 C-111.15040411 343.81453069 -109.23008443 343.81825595 -107.30976564 343.822375 C-102.01080297 343.83241967 -96.71185162 343.83611574 -91.41288078 343.83876431 C-85.70655894 343.84266002 -80.00024614 343.85223879 -74.29393005 343.86097717 C-60.50300159 343.88076152 -46.71207236 343.89080992 -32.92113325 343.89970496 C-26.43304599 343.90408431 -19.94495955 343.909452 -13.45687294 343.91469383 C8.09975579 343.93170746 29.65638321 343.94622803 51.21301746 343.95344257 C52.6075415 343.95391733 54.00206553 343.95439322 55.39658956 343.95487024 C56.43394734 343.9552248 56.43394734 343.9552248 57.49226184 343.95558653 C60.99622469 343.95678775 64.50018754 343.95800319 68.00415039 343.95922852 C69.04721608 343.95958874 69.04721608 343.95958874 70.11135381 343.95995624 C92.66490717 343.96785186 115.21840799 343.99128878 137.77193841 344.02378446 C161.60555888 344.05806197 185.43914507 344.0777906 209.27279109 344.08108681 C222.26937084 344.08325566 235.26587336 344.09205901 248.26243019 344.11754799 C259.32760993 344.13919852 270.3926937 344.1473333 281.45789222 344.13758121 C287.10706891 344.13302019 292.75604733 344.13502696 298.40519714 344.15434265 C303.57249036 344.17185879 308.73943898 344.17107119 313.90673526 344.15544536 C315.78024206 344.15305163 317.65377201 344.15748329 319.52724323 344.16927401 C322.06655394 344.18427061 324.60462418 344.17480627 327.14390278 344.15904713 C328.2447801 344.17438044 328.2447801 344.17438044 329.36789736 344.19002351 C334.18945971 344.1243428 336.64682554 343.0885901 340.03125 339.6640625 C341.70492993 336.31670265 341.17535194 332.54507373 341.17169189 328.86390686 C341.17466302 327.94143187 341.17763414 327.01895689 341.1806953 326.06852812 C341.18940942 322.95851817 341.19089282 319.8485466 341.19238281 316.73852539 C341.197009 314.51652442 341.20203339 312.29452426 341.20742798 310.07252502 C341.22057162 304.02304848 341.22700055 297.97358304 341.23143864 291.92409444 C341.23436569 288.14872477 341.23846975 284.37335817 341.24294281 280.59799004 C341.25505358 270.15033281 341.26543544 259.7026774 341.2688179 249.25501347 C341.26903747 248.58615825 341.26925703 247.91730304 341.26948325 247.22817948 C341.26970153 246.55770381 341.26991981 245.88722815 341.2701447 245.19643503 C341.27058817 243.8377438 341.27103473 242.47905256 341.27148438 241.12036133 C341.2717058 240.44640032 341.27192723 239.77243932 341.27215537 239.07805526 C341.27610537 228.15174861 341.29356543 217.22550857 341.3168439 206.29922766 C341.34053659 195.08829573 341.35276059 183.87739611 341.35418582 172.66643518 C341.35523652 166.36905132 341.36120053 160.0717614 341.37900543 153.77440071 C341.39541844 147.85405858 341.3976747 141.9338817 341.38886642 136.01352501 C341.38809245 133.83621403 341.39248577 131.65889441 341.40232468 129.48160553 C341.41493561 126.51793757 341.40922685 123.55486459 341.39874268 120.59120178 C341.40679908 119.72195023 341.41485548 118.85269868 341.42315602 117.95710617 C341.51131271 113.67917543 341.51131271 113.67917543 339.73087382 109.94280905 C336.86289704 107.78502839 333.48567821 108.28576344 330.0390625 108.328125 C328.43098556 108.31561118 326.82291262 108.302574 325.21484375 108.2890625 C322.68458872 108.2851343 320.154729 108.2890713 317.62451172 108.30371094 C315.17876512 108.31229753 312.73466434 108.29057212 310.2890625 108.265625 C309.53682404 108.27896881 308.78458557 108.29231262 308.009552 108.30606079 C304.04486007 108.25049701 302.21751443 107.8087111 299.05029297 105.34912109 C297.03125 102.6640625 297.03125 102.6640625 296.46875 99.1015625 C297.13971069 95.00124719 297.69397066 94.07352901 301.03125 91.6640625 C303.98425123 91.071945 306.88679743 91.10348124 309.890625 91.1328125 C311.18543793 91.12707214 311.18543793 91.12707214 312.50640869 91.12121582 C314.3320838 91.11849653 316.15779786 91.12585899 317.98339844 91.14257812 C320.75806254 91.16388445 323.5301066 91.1428324 326.3046875 91.1171875 C328.08333899 91.11983281 329.86198887 91.12496199 331.640625 91.1328125 C332.87229401 91.12066711 332.87229401 91.12066711 334.12884521 91.10827637 C341.24199764 91.22219162 346.29718186 93.42709766 351.78125 97.9140625 C357.67090788 105.11253324 358.61548089 111.28172333 358.5459137 120.45443726 C358.55285922 121.62619652 358.55980475 122.79795579 358.56696075 124.00522292 C358.58204182 127.24029186 358.57930655 130.4747664 358.56880772 133.70983505 C358.5617966 137.20552764 358.57782817 140.70112756 358.59080505 144.1967926 C358.61241917 151.03847195 358.61232472 157.87998481 358.60417951 164.72168706 C358.59787266 170.28445142 358.59902281 175.84716733 358.60545158 181.40993118 C358.60635324 182.20248871 358.60725489 182.99504624 358.60818387 183.81162066 C358.61003513 185.42185009 358.61189769 187.0320795 358.61377143 188.64230891 C358.63034119 203.73395943 358.62163806 218.82551641 358.60478585 233.9171613 C358.59009303 247.71277975 358.60471281 261.50818032 358.63355602 275.30377071 C358.66297604 289.4812316 358.67391449 303.65859203 358.66437382 317.8360821 C358.6633513 319.44090881 358.66235669 321.04573554 358.6613903 322.65056229 C358.66091391 323.44009491 358.66043752 324.22962753 358.6599467 325.04308539 C358.65778582 330.59544719 358.66756935 336.14771353 358.68216133 341.70005417 C358.69971097 348.4720937 358.69952996 355.24385564 358.67680968 362.01588438 C358.6656905 365.46840312 358.66245114 368.92043328 358.68111038 372.37293053 C358.69704897 376.1223252 358.68207904 379.87038834 358.65943909 383.61972046 C358.67719268 385.24289564 358.67719268 385.24289564 358.69530493 386.89886224 C358.59807234 394.84144157 356.84735537 401.82029305 351.10011011 407.60920179 C342.02925027 415.36346694 329.60485372 413.94087716 318.39428711 413.89111328 C316.6097311 413.89054849 314.82517463 413.89086705 313.0406189 413.89199829 C308.21688439 413.89257017 303.39325012 413.88084264 298.56953883 413.86685038 C293.52069407 413.85431544 288.47184681 413.85317034 283.42298889 413.85079956 C273.87158017 413.8445929 264.32021744 413.82819312 254.76882893 413.80810058 C243.89096181 413.78571622 233.01309244 413.77474177 222.13520801 413.76470971 C199.76719067 413.74382616 177.39923634 413.7071601 155.03125 413.6640625 C155.03125 426.5340625 155.03125 439.4040625 155.03125 452.6640625 C167.50621466 452.50629749 167.50621466 452.50629749 179.98046875 452.30371094 C181.55988476 452.2920139 183.13931295 452.28182449 184.71875 452.2734375 C185.51990234 452.25297363 186.32105469 452.23250977 187.14648438 452.21142578 C192.85401185 452.20793707 197.30470643 453.36149268 202.03125 456.6640625 C206.39809305 462.1506089 207.20003161 466.51088067 207.26953125 473.33203125 C207.277603 474.08567459 207.28567474 474.83931793 207.29399109 475.61579895 C207.307815 477.21202304 207.31854473 478.80827648 207.32641602 480.40454102 C207.33790922 482.02702575 207.35831894 483.64947347 207.38793945 485.27172852 C207.70138979 502.44495429 207.70138979 502.44495429 203.03125 508.6640625 C198.46385552 512.38895454 194.88367042 513.24344263 189.13696289 513.17199707 C188.36019479 513.17823703 187.58342669 513.184477 186.78312016 513.19090605 C184.18973674 513.2068147 181.59729603 513.19424058 179.00390625 513.18164062 C177.14085341 513.1870627 175.27780485 513.19418584 173.4147644 513.20288086 C168.36105195 513.22110692 163.30766634 513.21404959 158.25394821 513.20136452 C152.9636421 513.19123318 147.67336386 513.20063057 142.38305664 513.20690918 C133.49913512 513.21418518 124.61534663 513.20459908 115.73144531 513.18554688 C105.46235397 513.16377827 95.1935803 513.17082967 84.92449665 513.1928525 C76.1056436 513.21100779 67.28688614 513.21356417 58.46802044 513.20309782 C53.20178203 513.19686363 47.93569291 513.19602529 42.66946411 513.20924377 C37.71829492 513.22080348 32.76753506 513.2127742 27.81641006 513.18966675 C25.99996749 513.18438032 24.18349044 513.18589231 22.36706161 513.19471741 C19.88608933 513.20565933 17.40642613 513.19192664 14.92553711 513.17199707 C14.2078267 513.18091996 13.49011629 513.18984284 12.75065708 513.19903612 C7.73128389 513.12090195 4.89379033 511.81676471 1.03125 508.6640625 C-4.13581092 501.7057538 -3.5795651 493.86273352 -3.49023438 485.54638672 C-3.46879642 483.16920958 -3.49009135 480.79505358 -3.515625 478.41796875 C-3.5427239 464.14041252 -3.5427239 464.14041252 1.03125 457.6640625 C6.91883872 452.9780225 11.55618585 452.52123698 18.85546875 452.56640625 C19.61911743 452.56741333 20.38276611 452.56842041 21.16955566 452.56945801 C24.01930241 452.57468586 26.86902773 452.58864714 29.71875 452.6015625 C36.091875 452.6221875 42.465 452.6428125 49.03125 452.6640625 C49.03125 439.7940625 49.03125 426.9240625 49.03125 413.6640625 C45.81608643 413.67453613 42.60092285 413.68500977 39.28833008 413.69580078 C28.67126948 413.72892463 18.05420661 413.75102586 7.43710804 413.76768684 C0.99930401 413.77812873 -5.43844712 413.79229546 -11.8762207 413.81494141 C-18.08778212 413.83665514 -24.29929262 413.84862807 -30.51088905 413.85381699 C-32.88197951 413.85751537 -35.25306716 413.86473726 -37.62413597 413.87552261 C-40.94243796 413.89001781 -44.26052892 413.89204124 -47.57885742 413.89111328 C-48.56141006 413.89830383 -49.54396271 413.90549438 -50.55628967 413.91290283 C-60.75080523 413.88200727 -60.75080523 413.88200727 -64.96875 409.6640625 C-65.94945061 406.64023562 -66.08337421 405.04320411 -65.15625 401.9765625 C-63.96875 399.6640625 -63.96875 399.6640625 -61.96875 397.6640625 C-59.17296803 397.41155481 -59.17296803 397.41155481 -55.51811409 397.4079361 C-54.84503206 397.40453923 -54.17195003 397.40114236 -53.47847158 397.39764255 C-51.20074613 397.38860836 -48.92327285 397.39392471 -46.64553833 397.39904785 C-45.00499035 397.39548039 -43.3644441 397.39103121 -41.72390068 397.38577127 C-37.19829546 397.37379854 -32.67276232 397.37429558 -28.14714503 397.37670636 C-23.27315351 397.37712439 -18.3991873 397.3660416 -13.52520752 397.35624695 C-5.07399496 397.34076449 3.37720086 397.33237643 11.82842636 397.32853699 C24.05195999 397.32279969 36.27544846 397.30422946 48.49896218 397.28209645 C68.33474997 397.24634511 88.17054031 397.21804535 108.00634766 397.19580078 C109.19443209 397.19446579 110.38251653 397.1931308 111.60660352 397.19175535 C120.0398188 397.18232783 128.47303436 397.17316513 136.90625 397.1640625 C146.53597026 397.15366725 156.16569037 397.14315018 165.79541016 397.13232422 C167.57446593 397.13032811 167.57446593 397.13032811 169.38946222 397.12829167 C189.14669466 397.10588202 208.90390786 397.0756955 228.66112053 397.03993177 C240.8575098 397.01823457 253.05386907 397.00363719 265.25027658 396.99809301 C273.60414844 396.99385399 281.95799174 396.98263785 290.31184779 396.96586907 C295.13655662 396.95644008 299.96121203 396.95035873 304.78593063 396.95293236 C309.19874702 396.95523588 313.61145101 396.94846767 318.02424456 396.93435353 C319.62451077 396.93087854 321.2247886 396.9308159 322.82505451 396.93442613 C324.99314985 396.93884147 327.16086737 396.93108351 329.32893181 396.9201889 C330.53535831 396.91899473 331.74178482 396.91780055 332.9847697 396.91657019 C335.92859559 396.67257102 337.60206317 396.30311131 340.03125 394.6640625 C341.53731515 391.65193221 341.15285331 388.55123628 341.12890625 385.25 C341.1274913 384.52036041 341.12607635 383.79072083 341.12461853 383.03897095 C341.11901531 380.70562665 341.10646235 378.37237786 341.09375 376.0390625 C341.08873541 374.45833472 341.08417243 372.87760543 341.08007812 371.296875 C341.06904484 367.41923396 341.05177811 363.54166443 341.03125 359.6640625 C340.53256188 359.82646703 340.03387377 359.98887155 339.52007389 360.15619743 C336.08558559 360.85703313 332.69935203 360.80090727 329.21006775 360.78990364 C328.41311513 360.79135708 327.6161625 360.79281052 326.7950598 360.79430801 C324.10806455 360.79797534 321.42112576 360.79447817 318.73413086 360.79104614 C316.79487294 360.79219767 314.85561524 360.79378541 312.91635799 360.79577339 C307.57437227 360.79996236 302.23240433 360.79787794 296.89041853 360.79478717 C291.13439276 360.79253155 285.37837012 360.7960135 279.62234497 360.79876709 C268.3411298 360.80322203 257.05992127 360.80224954 245.77870584 360.79935445 C236.61312064 360.79709934 227.4475373 360.79678836 218.2819519 360.79787827 C216.32786751 360.79810811 216.32786751 360.79810811 214.33430666 360.79834261 C211.68814572 360.79866232 209.04198478 360.79898653 206.39582384 360.7993152 C182.27039793 360.80208776 158.14497553 360.79920876 134.01955019 360.7939726 C111.98601329 360.78922684 89.95248216 360.78965146 67.91894531 360.79443359 C43.17609979 360.79978578 18.4332576 360.8018945 -6.30958843 360.79882133 C-8.94620959 360.79850277 -11.58283075 360.7981884 -14.2194519 360.79787827 C-16.16553544 360.79764685 -16.16553544 360.79764685 -18.1509338 360.79741076 C-27.30929235 360.79654605 -36.46764885 360.79800752 -45.62600708 360.80035782 C-56.78154039 360.80315763 -67.93706666 360.80241371 -79.09259915 360.79707707 C-84.78817587 360.79444252 -90.48374084 360.79343087 -96.17931747 360.79672623 C-101.38769908 360.7996942 -106.59605799 360.79808791 -111.80443752 360.79274867 C-113.69401301 360.79162665 -115.5835904 360.79221096 -117.47316468 360.79462446 C-120.03132674 360.79764264 -122.58940989 360.79456908 -125.14756775 360.78990364 C-126.26115412 360.79341539 -126.26115412 360.79341539 -127.39723718 360.79699808 C-130.73019441 360.78475739 -133.78221821 360.70179965 -136.96875 359.6640625 C-137.04291067 364.30880232 -137.09735615 368.95319749 -137.13354492 373.59838867 C-137.14863094 375.17852786 -137.1691025 376.75862519 -137.19506836 378.33862305 C-137.23146126 380.60996835 -137.24847762 382.88076009 -137.26171875 385.15234375 C-137.27720261 385.85869461 -137.29268646 386.56504547 -137.30863953 387.2928009 C-137.32248997 391.19062393 -137.32248997 391.19062393 -135.57543945 394.57104492 C-132.83237511 396.43712896 -131.13610273 396.79064652 -127.85791016 396.8059082 C-127.01007965 396.81294266 -126.16224915 396.81997711 -125.28872681 396.82722473 C-123.91217422 396.83347115 -123.91217422 396.83347115 -122.5078125 396.83984375 C-120.57290577 396.86304013 -118.63800989 396.88715739 -116.703125 396.91210938 C-113.64608477 396.94725059 -110.58944436 396.97658138 -107.53222656 396.98999023 C-104.58609397 397.00544863 -101.6411356 397.04564336 -98.6953125 397.08984375 C-97.32483261 397.08698112 -97.32483261 397.08698112 -95.92666626 397.08406067 C-89.58653998 397.20647064 -89.58653998 397.20647064 -86.3918457 399.57275391 C-83.97256639 403.12800293 -84.49873509 405.43392829 -84.96875 409.6640625 C-86.41683951 411.90860124 -87.29935245 412.46353147 -89.82917786 413.22138977 C-93.4442302 413.96933608 -97.1156538 413.82707744 -100.79296875 413.83203125 C-101.65380569 413.83535965 -102.51464264 413.83868805 -103.40156555 413.84211731 C-105.22302721 413.84717524 -107.04449812 413.84952599 -108.8659668 413.84936523 C-111.6289027 413.85154096 -114.39143213 413.86967888 -117.15429688 413.88867188 C-118.92968615 413.89160832 -120.7050773 413.89359144 -122.48046875 413.89453125 C-123.29642014 413.90171677 -124.11237152 413.90890228 -124.95304871 413.91630554 C-134.35142559 413.87957552 -142.18182336 412.50018957 -148.96875 405.6640625 C-153.82667236 398.54931989 -154.689278 392.06208103 -154.59693909 383.61972046 C-154.60403347 382.44484121 -154.61112786 381.26996196 -154.61843723 380.05948031 C-154.63291411 376.82493086 -154.62519539 373.59134603 -154.6077143 370.35684061 C-154.59427871 366.8584956 -154.60979928 363.3602578 -154.62153625 359.86192322 C-154.6398702 353.01980165 -154.63142963 346.17796655 -154.61344803 339.33585404 C-154.59939784 333.77406962 -154.59553441 328.21236275 -154.5988903 322.65056229 C-154.59936775 321.85769829 -154.59984519 321.0648343 -154.6003371 320.24794412 C-154.60136347 318.6370663 -154.60241883 317.02618849 -154.60350286 315.4153107 C-154.61206104 301.18664735 -154.59542242 286.95812196 -154.56567383 272.72949219 C-154.53682766 258.93223275 -154.52975917 245.13517196 -154.54516602 231.33789062 C-154.56193595 216.29940492 -154.56595516 201.26101341 -154.54845566 186.22252524 C-154.54661133 184.61832723 -154.5447766 183.01412921 -154.54295158 181.40993118 C-154.54203949 180.62070711 -154.5411274 179.83148304 -154.54018768 179.01834308 C-154.53458804 173.46403926 -154.537884 167.90978152 -154.54449654 162.35548019 C-154.55223655 155.58564573 -154.54545287 148.81600662 -154.5203215 142.04621147 C-154.50784305 138.59399915 -154.5016596 135.14209074 -154.51286316 131.68986702 C-154.52154904 127.94440409 -154.50561425 124.19982619 -154.4834137 120.45443726 C-154.49165446 119.36785902 -154.49989523 118.28128079 -154.50838572 117.16177595 C-154.42175468 109.24575914 -152.7302456 104.03922379 -147.71875 97.9140625 C-141.51740262 92.84023283 -136.02859341 91.07871468 -128.0859375 91.1953125 C-127.26803741 91.18826294 -126.45013733 91.18121338 -125.60745239 91.1739502 C-123.01922614 91.15207708 -120.43204056 91.15488245 -117.84375 91.1640625 C-114.42392417 91.1761422 -111.00562955 91.16235628 -107.5859375 91.1328125 C-106.4232283 91.14979187 -106.4232283 91.14979187 -105.23703003 91.16711426 C-99.94236564 91.11804052 -97.32226879 89.87265233 -92.96875 86.6640625 C-90.63525391 86.02636719 -90.63525391 86.02636719 -88.4453125 85.8359375 C-87.25615234 85.71992188 -87.25615234 85.71992188 -86.04296875 85.6015625 C-85.23472656 85.5396875 -84.42648438 85.4778125 -83.59375 85.4140625 C-82.34658203 85.29804688 -82.34658203 85.29804688 -81.07421875 85.1796875 C-79.04039815 84.99266951 -77.00470073 84.82625564 -74.96875 84.6640625 C-74.78699219 84.02339844 -74.60523437 83.38273437 -74.41796875 82.72265625 C-74.16660156 81.85769531 -73.91523437 80.99273437 -73.65625 80.1015625 C-73.41261719 79.25464844 -73.16898437 78.40773438 -72.91796875 77.53515625 C-71.96875 74.6640625 -71.96875 74.6640625 -70.03125 71.2890625 C-68.62596858 67.92287654 -68.62596858 67.92287654 -69.7590332 65.83032227 C-71.17053248 63.85672382 -72.67241422 62.04286831 -74.28125 60.2265625 C-80.32638743 53.29818343 -80.32638743 53.29818343 -80.484375 48.4140625 C-79.80932971 43.50464221 -79.80932971 43.50464221 -77.40625 41.1015625 C-76.78234375 40.45960937 -76.1584375 39.81765625 -75.515625 39.15625 C-74.67515625 38.33382812 -73.8346875 37.51140625 -72.96875 36.6640625 C-71.72218869 35.3975727 -70.47757182 34.12916757 -69.234375 32.859375 C-66.56611378 30.14993988 -63.8936168 27.44518479 -61.19921875 24.76171875 C-60.62582764 24.18945557 -60.05243652 23.61719238 -59.46166992 23.02758789 C-56.58878925 20.40370587 -53.59763717 19.98590699 -49.74609375 19.9609375 C-45.20788627 21.10985079 -42.02072611 24.11728248 -38.57495117 27.19458008 C-35.42508909 30.00221558 -35.42508909 30.00221558 -31.39453125 30.6015625 C-30.19376953 30.1375 -30.19376953 30.1375 -28.96875 29.6640625 C-28.13214844 29.34308594 -27.29554687 29.02210937 -26.43359375 28.69140625 C-24.74555471 27.96348833 -23.0580558 27.23431663 -21.37109375 26.50390625 C-18.96875 25.6640625 -18.96875 25.6640625 -14.96875 25.6640625 C-15.01 24.4059375 -15.05125 23.1478125 -15.09375 21.8515625 C-15.07622359 18.15348955 -14.81273306 14.57483831 -14.28125 10.9140625 C-14.15363281 10.03234375 -14.02601563 9.150625 -13.89453125 8.2421875 C-11.42634258 1.36875069 -6.76611464 -0.09457504 0 0 Z M2.03125 15.6640625 C1.7425 17.2934375 1.45375 18.9228125 1.15625 20.6015625 C0.8778125 22.10009766 0.8778125 22.10009766 0.59375 23.62890625 C0.24438414 25.51402621 -0.09151662 27.40175838 -0.40625 29.29296875 C-0.550625 30.07542969 -0.695 30.85789062 -0.84375 31.6640625 C-1.02550781 32.7159375 -1.02550781 32.7159375 -1.2109375 33.7890625 C-2.27616768 36.42468356 -3.53302185 37.2107447 -5.96875 38.6640625 C-8.15404626 39.51726381 -10.36622053 40.30313813 -12.59375 41.0390625 C-17.91199833 42.85599262 -22.73443615 44.92318236 -27.58984375 47.74609375 C-30.95633344 49.04514971 -33.38409147 49.08006951 -36.96875 48.6640625 C-40.13671875 46.6953125 -40.13671875 46.6953125 -43.15625 44.1640625 C-47.44977448 40.34293698 -47.44977448 40.34293698 -52.96875 39.6640625 C-55.4220179 41.63225414 -55.4220179 41.63225414 -57.71875 44.1640625 C-58.51796875 44.999375 -59.3171875 45.8346875 -60.140625 46.6953125 C-60.74390625 47.345 -61.3471875 47.9946875 -61.96875 48.6640625 C-59.33192791 52.73293831 -59.33192791 52.73293831 -56.3671875 56.5625 C-55.82320312 57.21476562 -55.27921875 57.86703125 -54.71875 58.5390625 C-54.19796875 59.13460937 -53.6771875 59.73015625 -53.140625 60.34375 C-51.41416222 63.76214631 -51.44070252 66.95561099 -51.96875 70.6640625 C-52.95544395 73.27214959 -53.93494341 75.53635494 -55.21875 77.9765625 C-57.93002661 83.38283993 -60.14002988 88.66944765 -61.8515625 94.4921875 C-63.41067585 97.52319108 -64.8532892 98.2929243 -67.96875 99.6640625 C-70.72585868 100.26678257 -73.4746036 100.57756876 -76.28125 100.8515625 C-80.0865625 101.25375 -80.0865625 101.25375 -83.96875 101.6640625 C-83.96875 106.9440625 -83.96875 112.2240625 -83.96875 117.6640625 C-82.71578125 117.83421875 -81.4628125 118.004375 -80.171875 118.1796875 C-78.52070476 118.42361038 -76.86966979 118.6684502 -75.21875 118.9140625 C-74.39375 119.02363281 -73.56875 119.13320312 -72.71875 119.24609375 C-69.16453627 119.79069102 -66.57902021 120.24923831 -63.578125 122.2890625 C-61.42812954 125.46187133 -60.19005219 128.81250969 -58.96875 132.4140625 C-57.4112735 136.83004799 -55.90163627 141.07206557 -53.59375 145.1640625 C-51.68941213 149.26571329 -50.56370156 152.32253717 -51.96875 156.6640625 C-54.15716422 159.94880029 -56.46177565 162.90575356 -59 165.9296875 C-61.35828648 168.64352054 -61.35828648 168.64352054 -60.96875 172.6640625 C-59.00055836 175.1173304 -59.00055836 175.1173304 -56.46875 177.4140625 C-55.6334375 178.21328125 -54.798125 179.0125 -53.9375 179.8359375 C-53.2878125 180.43921875 -52.638125 181.0425 -51.96875 181.6640625 C-50.57091786 180.75044672 -49.17558607 179.83300504 -47.78125 178.9140625 C-46.95238281 178.37007812 -46.12351563 177.82609375 -45.26953125 177.265625 C-42.83579709 175.65752089 -42.83579709 175.65752089 -40.46875 173.2890625 C-36.59264389 170.76959353 -33.34923041 170.73505612 -28.96875 171.6640625 C-25.11731498 173.22764287 -21.42735963 174.99241305 -17.71484375 176.85546875 C-13.62661609 178.89173067 -9.41037187 180.31929533 -5.04296875 181.64453125 C-2.96875 182.6640625 -2.96875 182.6640625 -1.77734375 184.23046875 C-0.56102061 187.89119007 0.03842123 191.61252423 0.65625 195.4140625 C0.7903125 196.20683594 0.924375 196.99960938 1.0625 197.81640625 C1.39112298 199.76467108 1.71195705 201.71424689 2.03125 203.6640625 C6.98125 203.6640625 11.93125 203.6640625 17.03125 203.6640625 C17.32 201.8490625 17.60875 200.0340625 17.90625 198.1640625 C18.09703125 197.0709375 18.2878125 195.9778125 18.484375 194.8515625 C18.80498065 192.98288955 19.09889871 191.10863101 19.328125 189.2265625 C19.65625 187.1640625 19.65625 187.1640625 21.03125 183.6640625 C23.83711402 181.81113343 25.93093202 180.79404057 29.03125 179.6640625 C30.08957031 179.25414062 31.14789063 178.84421875 32.23828125 178.421875 C34.44702367 177.56866936 36.66159594 176.73033912 38.8828125 175.91015625 C42.07524804 174.703743 42.07524804 174.703743 45.17578125 173.0625 C49.42178488 170.98306183 52.43246761 170.33176819 57.03125 171.6640625 C61.74655313 174.46274329 65.89735947 178.08604287 70.03125 181.6640625 C73.83760497 178.45645999 77.57688567 175.25660141 81.03125 171.6640625 C79.01451275 167.12109649 75.82460684 163.54485063 72.7109375 159.7109375 C70.62320918 155.92389543 70.33691602 152.85116768 71.03125 148.6640625 C72.01792024 146.05603807 72.99785135 143.79190537 74.28125 141.3515625 C74.93105741 140.05145788 75.57687203 138.74935022 76.21875 137.4453125 C76.53199219 136.80980469 76.84523437 136.17429687 77.16796875 135.51953125 C78.78887651 132.03567974 79.95026587 128.396036 81.109375 124.73828125 C82.03125 122.6640625 82.03125 122.6640625 85.03125 120.6640625 C87.02416992 120.16162109 87.02416992 120.16162109 89.26171875 119.8125 C90.06416016 119.68359375 90.86660156 119.5546875 91.69335938 119.421875 C92.94342773 119.23238281 92.94342773 119.23238281 94.21875 119.0390625 C95.06373047 118.905 95.90871094 118.7709375 96.77929688 118.6328125 C98.86224945 118.30330588 100.94662427 117.98281261 103.03125 117.6640625 C103.03125 112.3840625 103.03125 107.1040625 103.03125 101.6640625 C97.99220887 101.12757194 97.99220887 101.12757194 92.95043945 100.61791992 C88.67260983 100.1230136 85.507588 99.40577813 82.03125 96.6640625 C80.59375 93.3515625 80.59375 93.3515625 79.9140625 91.2578125 C78.76558585 87.88352712 77.37438977 84.62436394 75.96875 81.3515625 C75.46214844 80.15917969 74.95554688 78.96679688 74.43359375 77.73828125 C73.09423805 74.58591171 73.09423805 74.58591171 71.03125 71.6640625 C70.22677929 67.50763049 69.82318837 64.72455815 72.02148438 60.97509766 C74.77977952 57.00328256 77.86884689 53.31776752 81.03125 49.6640625 C77.82364749 45.85770753 74.62378891 42.11842683 71.03125 38.6640625 C66.47110491 40.69316687 62.85084576 43.88144793 58.98046875 46.984375 C55.27394349 49.09537614 53.24902466 49.18613233 49.03125 48.6640625 C46.47762913 47.67160723 44.19339021 46.66544738 41.78125 45.4140625 C36.35400462 42.7173408 31.01193428 40.47024267 25.203125 38.68359375 C22.37135266 37.35429055 21.50883326 36.44721187 20.03125 33.6640625 C19.25585928 30.60887467 18.78955836 27.53228488 18.34375 24.4140625 C18.21419922 23.57359375 18.08464844 22.733125 17.95117188 21.8671875 C17.63420558 19.80103683 17.33133484 17.73273244 17.03125 15.6640625 C12.08125 15.6640625 7.13125 15.6640625 2.03125 15.6640625 Z M65.03125 413.6640625 C65.03125 426.5340625 65.03125 439.4040625 65.03125 452.6640625 C89.45125 452.6640625 113.87125 452.6640625 139.03125 452.6640625 C139.03125 439.7940625 139.03125 426.9240625 139.03125 413.6640625 C114.61125 413.6640625 90.19125 413.6640625 65.03125 413.6640625 Z M13.03125 468.6640625 C13.03125 477.9040625 13.03125 487.1440625 13.03125 496.6640625 C14.93213404 498.56494654 18.30772646 497.79031323 20.82641602 497.79104614 C21.54527009 497.79260613 22.26412416 497.79416612 23.0047617 497.79577339 C25.43158028 497.79978588 27.85833712 497.79659279 30.28515625 497.79345703 C32.01764971 497.79481096 33.75014288 497.79659085 35.4826355 497.79876709 C40.20150833 497.8033424 44.9203594 497.80155146 49.63923264 497.798388 C54.56621105 497.79586491 59.49318753 497.7982018 64.42016602 497.79977417 C72.6958042 497.80159601 80.97143348 497.79918917 89.24707031 497.79443359 C98.82929861 497.78899095 108.41150563 497.79075359 117.99373341 497.79626 C126.20516804 497.80079071 134.41659625 497.80144188 142.62803173 497.79882133 C147.53922563 497.79725832 152.45040952 497.79706543 157.36160278 497.80035782 C161.97767259 497.80323593 166.59371483 497.80126196 171.20978165 497.79546356 C172.90899739 497.79413564 174.60821543 497.79453062 176.30743027 497.79672623 C178.61701336 497.79943648 180.9265067 497.79605817 183.23608398 497.79104614 C184.53174789 497.79066912 185.8274118 497.79029209 187.16233826 497.78990364 C189.92829624 497.99216325 189.92829624 497.99216325 191.03125 496.6640625 C191.03125 487.4240625 191.03125 478.1840625 191.03125 468.6640625 C132.29125 468.6640625 73.55125 468.6640625 13.03125 468.6640625 Z " fill="#ffffff" transform="translate(153.96875,-0.6640625)"/>
<path d="M0 0 C0.66677261 -0.00478363 1.33354523 -0.00956726 2.02052307 -0.01449585 C3.42492036 -0.01788447 4.82939764 -0.00875426 6.23364258 0.01220703 C8.37046371 0.03895681 10.50201455 0.01245832 12.63867188 -0.01953125 C23.97955358 -0.05314816 23.97955358 -0.05314816 27.828125 2.796875 C30.24184677 6.07168421 30.89301208 8.13711347 31.31640625 12.1640625 C31.51363281 13.81921875 31.51363281 13.81921875 31.71484375 15.5078125 C31.91119348 18.24316738 31.992536 20.92350794 31.94140625 23.6640625 C32.91980469 23.95410156 32.91980469 23.95410156 33.91796875 24.25 C34.79195313 24.51039063 35.6659375 24.77078125 36.56640625 25.0390625 C37.85417969 25.42191406 37.85417969 25.42191406 39.16796875 25.8125 C41.94140625 26.6640625 41.94140625 26.6640625 44.91796875 28.03515625 C48.0538396 29.0426126 48.0538396 29.0426126 50.86328125 26.92578125 C51.7965625 26.07628906 52.72984375 25.22679687 53.69140625 24.3515625 C54.635 23.50980469 55.57859375 22.66804688 56.55078125 21.80078125 C57.3396875 21.09566406 58.12859375 20.39054687 58.94140625 19.6640625 C62.20188254 18.03382436 64.3194166 18.196709 67.94140625 18.6640625 C71.01984016 20.55106673 73.40806215 23.11061249 75.94140625 25.6640625 C77.13580998 26.83556267 78.33120594 28.00605168 79.52734375 29.17578125 C82.04873279 31.65836982 84.56573722 34.14497101 87.0625 36.65234375 C87.85805298 37.44958862 87.85805298 37.44958862 88.66967773 38.26293945 C90.73839338 40.54214066 90.95199869 41.77422389 91.25390625 44.9140625 C90.83123051 49.98617133 88.79254586 52.86174416 85.1640625 56.39453125 C83.20095602 58.47791559 81.93090609 59.96420547 80.94140625 62.6640625 C81.75623883 66.09333117 83.02558497 68.89725548 84.63671875 72.02734375 C85.94140625 74.6640625 85.94140625 74.6640625 85.94140625 77.6640625 C87.18277344 77.73882812 88.42414063 77.81359375 89.703125 77.890625 C91.34516865 78.02198849 92.98709042 78.15488172 94.62890625 78.2890625 C95.44552734 78.33417969 96.26214844 78.37929687 97.10351562 78.42578125 C101.21917756 78.79235843 103.54103145 79.38636664 106.98828125 81.77734375 C110.41173223 86.71351684 109.64126359 93.32040092 109.53833008 99.08666992 C109.50392929 101.22513014 109.51771018 103.35947033 109.53710938 105.49804688 C109.53021188 106.86720495 109.52054034 108.23635246 109.5078125 109.60546875 C109.49693604 110.83982666 109.48605957 112.07418457 109.47485352 113.34594727 C108.85086474 117.22724314 107.67841471 118.89508338 104.94140625 121.6640625 C102.93359375 122.5546875 102.93359375 122.5546875 100.81640625 122.9140625 C99.65431641 123.11902344 99.65431641 123.11902344 98.46875 123.328125 C94.30092177 123.88211762 90.13270497 124.33155863 85.94140625 124.6640625 C85.74804688 125.32792969 85.5546875 125.99179688 85.35546875 126.67578125 C85.09507812 127.55878906 84.8346875 128.44179687 84.56640625 129.3515625 C84.31117188 130.22167969 84.0559375 131.09179688 83.79296875 131.98828125 C82.94140625 134.6640625 82.94140625 134.6640625 81.5703125 137.109375 C80.584287 139.85045855 80.584287 139.85045855 82.6796875 142.70703125 C83.5195791 143.76983247 84.37856371 144.81776379 85.25390625 145.8515625 C86.10503122 146.90685538 86.95532825 147.9628167 87.8046875 149.01953125 C88.86236328 150.32857422 88.86236328 150.32857422 89.94140625 151.6640625 C91.77732889 155.33590778 91.1755593 158.83818805 89.94140625 162.6640625 C87.29950542 166.40344745 84.13049354 169.45761809 80.81640625 172.6015625 C79.97335937 173.45041016 79.1303125 174.29925781 78.26171875 175.17382812 C73.74589896 179.58095971 70.3217427 182.89068838 63.94140625 183.6640625 C59.03569792 182.30136574 56.34144412 180.15120561 52.56640625 176.7890625 C49.45385832 174.17371633 49.45385832 174.17371633 45.578125 173.80859375 C43.25162763 174.60233991 41.14722107 175.58232783 38.94140625 176.6640625 C36.94866348 177.35211825 34.94985903 178.02331147 32.94140625 178.6640625 C32.77125 179.83324219 32.60109375 181.00242187 32.42578125 182.20703125 C32.18180577 183.75533717 31.93696854 185.30350746 31.69140625 186.8515625 C31.58183594 187.62048828 31.47226562 188.38941406 31.359375 189.18164062 C30.57125891 194.01403665 29.58359412 197.13826033 25.94140625 200.6640625 C20.5370333 202.46552015 14.72172459 201.89141858 9.06640625 201.9140625 C7.14634766 201.945 7.14634766 201.945 5.1875 201.9765625 C3.95386719 201.98171875 2.72023438 201.986875 1.44921875 201.9921875 C0.3214502 202.0015332 -0.80631836 202.01087891 -1.96826172 202.02050781 C-6.19865413 201.53256557 -8.77252167 199.8791593 -11.828125 196.9921875 C-13.62646935 193.58960581 -13.62962532 190.18098422 -13.74609375 186.4140625 C-13.78025391 185.66898438 -13.81441406 184.92390625 -13.84960938 184.15625 C-13.93173429 182.32603758 -13.99685028 180.49507581 -14.05859375 178.6640625 C-15.03699219 178.37402344 -15.03699219 178.37402344 -16.03515625 178.078125 C-16.90914063 177.81773437 -17.783125 177.55734375 -18.68359375 177.2890625 C-19.54210937 177.03382813 -20.400625 176.77859375 -21.28515625 176.515625 C-24.05859375 175.6640625 -24.05859375 175.6640625 -27.01953125 174.29296875 C-30.17693224 173.2876408 -30.17693224 173.2876408 -33.05859375 175.40234375 C-34.54359375 176.67658203 -34.54359375 176.67658203 -36.05859375 177.9765625 C-40.06476453 181.38285094 -42.69626424 183.5143166 -48.05859375 183.6640625 C-54.5413456 181.67806711 -58.65033433 176.7422525 -63.37109375 172.1015625 C-64.30244141 171.23208984 -65.23378906 170.36261719 -66.19335938 169.46679688 C-73.6622587 162.12921886 -73.6622587 162.12921886 -73.91015625 156.875 C-73.41213966 152.73097053 -71.79848198 150.06536946 -69.12109375 146.8515625 C-65.49033455 142.73939665 -65.49033455 142.73939665 -64.05859375 137.6640625 C-65.14012039 132.68658192 -66.82571432 128.61895167 -70.05859375 124.6640625 C-73.97310113 123.42562322 -77.44237361 123.16965659 -81.53515625 122.97265625 C-84.94856392 122.67369926 -86.36812515 122.38531047 -88.93359375 120.2265625 C-93.44538652 114.78587121 -92.28049066 108.08576476 -92.30859375 101.3515625 C-92.32921875 100.12759766 -92.34984375 98.90363281 -92.37109375 97.64257812 C-92.37625 96.45728516 -92.38140625 95.27199219 -92.38671875 94.05078125 C-92.39606445 92.97014404 -92.40541016 91.88950684 -92.41503906 90.77612305 C-91.99870985 87.14122684 -90.96145776 84.77558516 -89.05859375 81.6640625 C-85.83777851 79.51685234 -83.7713958 79.37583494 -80.00146484 79.03149414 C-72.49908737 78.36467096 -72.49908737 78.36467096 -66.79296875 73.94140625 C-65.18713786 70.14370848 -63.89378489 66.77843955 -64.21875 62.609375 C-65.41129994 59.84709653 -67.21955288 57.800668 -69.12109375 55.4765625 C-72.17856097 51.30023952 -74.43457825 48.19240969 -73.8984375 42.90625 C-72.00117016 37.84098744 -67.86916585 34.35116982 -64.05859375 30.6640625 C-63.17300781 29.74496094 -62.28742188 28.82585937 -61.375 27.87890625 C-52.97775776 19.20716278 -52.97775776 19.20716278 -47.37109375 18.1640625 C-41.33332538 19.07542376 -36.57967279 23.21058697 -32.24609375 27.3515625 C-29.13825233 29.02176005 -29.13825233 29.02176005 -26.12890625 27.79296875 C-23.98298472 26.88468302 -21.85975776 25.92047965 -19.765625 24.8984375 C-17.05859375 23.6640625 -17.05859375 23.6640625 -14.05859375 23.6640625 C-14.09984375 22.3646875 -14.14109375 21.0653125 -14.18359375 19.7265625 C-14.15444209 13.55612863 -13.94696712 7.97672091 -9.94189453 3.07177734 C-6.37092995 0.08982538 -4.60094922 0.02102124 0 0 Z M1.94140625 16.6640625 C1.8434375 17.68886719 1.74546875 18.71367187 1.64453125 19.76953125 C1.49437674 21.13030652 1.34328538 22.49097864 1.19140625 23.8515625 C1.09859375 24.86186523 1.09859375 24.86186523 1.00390625 25.89257812 C0.44982821 30.62532806 -0.55115322 33.41383427 -4.05859375 36.6640625 C-7.23046875 38.10546875 -7.23046875 38.10546875 -10.80859375 39.2265625 C-14.89572825 40.56355474 -18.68954981 41.85841812 -22.43359375 43.9765625 C-26.54472839 45.89036656 -29.68377089 46.9888328 -34.05859375 45.6640625 C-37.08912571 43.74916593 -39.85873441 41.67410338 -42.640625 39.4140625 C-44.96617199 37.37091122 -44.96617199 37.37091122 -48.05859375 37.6640625 C-49.95598743 39.19747 -49.95598743 39.19747 -51.74609375 41.1640625 C-52.36871094 41.81375 -52.99132812 42.4634375 -53.6328125 43.1328125 C-54.10332031 43.638125 -54.57382812 44.1434375 -55.05859375 44.6640625 C-53.74803329 48.98891201 -51.56772757 51.45104019 -48.3984375 54.52734375 C-46.38326997 57.74103657 -45.91463781 60.93968596 -46.05859375 64.6640625 C-47.02479465 67.38931738 -47.95870766 69.59801767 -49.30859375 72.1015625 C-49.96872378 73.40559517 -50.62500293 74.71158465 -51.27734375 76.01953125 C-51.59058594 76.64263184 -51.90382813 77.26573242 -52.2265625 77.90771484 C-53.30528993 80.1848173 -54.08268719 82.50357929 -54.80859375 84.9140625 C-56.34102136 89.51134532 -56.34102136 89.51134532 -59.05859375 91.6640625 C-60.9597168 92.2800293 -60.9597168 92.2800293 -63.0703125 92.61328125 C-64.20629883 92.80180664 -64.20629883 92.80180664 -65.36523438 92.99414062 C-66.54375977 93.17106445 -66.54375977 93.17106445 -67.74609375 93.3515625 C-68.54337891 93.48111328 -69.34066406 93.61066406 -70.16210938 93.74414062 C-72.12587989 94.06163646 -74.09203886 94.36429575 -76.05859375 94.6640625 C-76.05859375 98.9540625 -76.05859375 103.2440625 -76.05859375 107.6640625 C-74.50398438 107.84582031 -74.50398438 107.84582031 -72.91796875 108.03125 C-71.54812937 108.20013431 -70.17834026 108.36942661 -68.80859375 108.5390625 C-68.12667969 108.61769531 -67.44476563 108.69632812 -66.7421875 108.77734375 C-63.12356363 109.23406327 -60.14566668 109.69359042 -57.05859375 111.6640625 C-56.02539062 113.41650391 -56.02539062 113.41650391 -55.27734375 115.515625 C-54.99246094 116.28519531 -54.70757812 117.05476563 -54.4140625 117.84765625 C-54.13175781 118.65332031 -53.84945312 119.45898438 -53.55859375 120.2890625 C-51.60748588 125.69692768 -49.58504791 130.8614534 -46.83496094 135.92016602 C-45.33042273 139.29969948 -45.88630282 141.20580425 -47.05859375 144.6640625 C-49.53147265 148.49002609 -52.2271348 152.0973272 -55.05859375 155.6640625 C-54.15057755 156.79605603 -53.23175549 157.91938613 -52.30859375 159.0390625 C-51.798125 159.66554688 -51.28765625 160.29203125 -50.76171875 160.9375 C-48.97659894 162.74718568 -47.37909731 163.66523705 -45.05859375 164.6640625 C-44.40632813 164.09816406 -43.7540625 163.53226563 -43.08203125 162.94921875 C-42.20804687 162.21574219 -41.3340625 161.48226562 -40.43359375 160.7265625 C-39.14582031 159.63021484 -39.14582031 159.63021484 -37.83203125 158.51171875 C-34.76130351 156.46600858 -32.71894228 155.88908393 -29.05859375 155.6640625 C-26.59182498 156.55209926 -24.40595904 157.52726082 -22.05859375 158.6640625 C-20.08407131 159.50834106 -18.10446145 160.34077779 -16.12109375 161.1640625 C-15.09371094 161.59589844 -14.06632812 162.02773438 -13.0078125 162.47265625 C-10.50161917 163.48509197 -7.99608714 164.37239804 -5.43359375 165.2265625 C-2.05859375 166.6640625 -2.05859375 166.6640625 -0.91796875 168.26953125 C0.2714228 171.58360861 0.66537806 174.93629343 1.06640625 178.4140625 C1.15277344 179.11144531 1.23914063 179.80882812 1.328125 180.52734375 C1.53912471 182.23878582 1.74116126 183.95132879 1.94140625 185.6640625 C6.23140625 185.6640625 10.52140625 185.6640625 14.94140625 185.6640625 C15.12316406 184.55546875 15.30492187 183.446875 15.4921875 182.3046875 C15.74551029 180.84104473 15.99944895 179.37750846 16.25390625 177.9140625 C16.37185547 177.18445313 16.48980469 176.45484375 16.61132812 175.703125 C17.9109635 168.3718485 17.9109635 168.3718485 20.94140625 165.6640625 C23.49731448 164.5153397 25.92505 163.55380482 28.56640625 162.6640625 C30.01653712 162.15493429 31.46576575 161.6432287 32.9140625 161.12890625 C33.61031738 160.88253418 34.30657227 160.63616211 35.02392578 160.38232422 C37.43042996 159.48088097 39.70743195 158.37678966 42.00390625 157.2265625 C46.10655228 155.40746473 48.56919309 155.12995262 52.94140625 156.6640625 C56.45832117 159.13107488 59.72313084 161.82136048 62.94140625 164.6640625 C66.15184507 163.28217797 67.9907699 161.73984347 70.19140625 159.0390625 C70.7121875 158.40742188 71.23296875 157.77578125 71.76953125 157.125 C72.34960938 156.40183594 72.34960938 156.40183594 72.94140625 155.6640625 C72.37550781 154.96539062 71.80960938 154.26671875 71.2265625 153.546875 C70.49308594 152.63679687 69.75960937 151.72671875 69.00390625 150.7890625 C68.27300781 149.88414062 67.54210937 148.97921875 66.7890625 148.046875 C64.19385569 144.69999095 63.48467417 142.41613052 63.5234375 138.12890625 C64.23420166 133.9373905 66.3506346 130.48043384 68.359375 126.7734375 C70.30634113 122.94680777 71.57603938 119.051201 72.7890625 114.94140625 C74.34833932 111.8598524 75.79991129 111.06605198 78.94140625 109.6640625 C82.4921875 108.93359375 82.4921875 108.93359375 86.25390625 108.4765625 C87.50816406 108.31800781 88.76242187 108.15945312 90.0546875 107.99609375 C91.00730469 107.88652344 91.95992187 107.77695313 92.94140625 107.6640625 C92.94140625 103.3740625 92.94140625 99.0840625 92.94140625 94.6640625 C91.8328125 94.49390625 90.72421875 94.32375 89.58203125 94.1484375 C88.11834857 93.90449039 86.65481429 93.65965174 85.19140625 93.4140625 C84.46179688 93.30449219 83.7321875 93.19492188 82.98046875 93.08203125 C78.4720575 92.30330567 75.71137246 91.56839582 72.94140625 87.6640625 C71.59765625 84.4921875 71.59765625 84.4921875 70.44140625 80.9140625 C69.07304307 76.82591862 67.72437783 72.99544955 65.62890625 69.2265625 C63.74099786 65.24097812 63.29696142 63.01406513 63.94140625 58.6640625 C65.62890625 55.6640625 65.62890625 55.6640625 67.94140625 52.6640625 C68.86226541 51.37538141 69.77892723 50.08369086 70.69140625 48.7890625 C71.80515625 47.2421875 71.80515625 47.2421875 72.94140625 45.6640625 C70.30140625 43.0240625 67.66140625 40.3840625 64.94140625 37.6640625 C60.86044924 39.2964453 59.20864555 40.10482656 56.12890625 42.7890625 C52.91446898 45.21482743 50.45916166 46.58702371 46.26171875 46.2578125 C42.01319442 45.17064802 38.1834334 43.1910033 34.2734375 41.23828125 C31.14806188 39.76169699 28.11761659 38.72785676 24.81640625 37.7265625 C21.10139179 36.39476486 20.18804864 36.02281507 17.87890625 32.6640625 C17.35546875 30.87890625 17.35546875 30.87890625 16.94140625 28.6640625 C16.64363281 27.11912109 16.64363281 27.11912109 16.33984375 25.54296875 C15.81856734 22.59254427 15.3744465 19.62872266 14.94140625 16.6640625 C10.65140625 16.6640625 6.36140625 16.6640625 1.94140625 16.6640625 Z " fill="#ffffff" transform="translate(349.05859375,121.3359375)"/>
<path d="M0 0 C10.68135346 8.48989036 17.29602443 19.59117185 19.5703125 33.04296875 C20.74310643 46.97190487 18.25326695 59.46761334 9.59765625 70.57421875 C0.87501562 80.78909243 -8.85442616 87.0618802 -22.0546875 89.79296875 C-36.55756857 90.86725624 -49.9331615 88.41341493 -61.33984375 78.87109375 C-62.02949219 78.2678125 -62.71914062 77.66453125 -63.4296875 77.04296875 C-64.35587891 76.29273438 -64.35587891 76.29273438 -65.30078125 75.52734375 C-72.48394727 69.19207928 -78.52485872 57.66096356 -79.4296875 48.04296875 C-80.41251758 32.06287965 -77.3691935 18.69195977 -66.8671875 6.35546875 C-49.08241278 -12.30007387 -21.09132503 -14.41957936 0 0 Z M-54.4296875 17.04296875 C-55.9146875 19.51796875 -55.9146875 19.51796875 -57.4296875 22.04296875 C-39.2796875 22.04296875 -21.1296875 22.04296875 -2.4296875 22.04296875 C-6.82921363 14.7104252 -12.64132698 10.68140054 -20.65625 7.734375 C-33.49702639 4.5332237 -45.10664525 7.86969425 -54.4296875 17.04296875 Z M-63.4296875 38.04296875 C-63.4296875 49.73041704 -60.8157008 56.56981874 -52.6484375 64.94921875 C-46.03787935 71.18735109 -38.81048382 73.47656914 -29.8671875 74.41796875 C-18.10747322 73.13509083 -9.7093616 68.26892719 -2.125 59.31640625 C2.84636594 52.6497358 3.5703125 46.23963085 3.5703125 38.04296875 C-18.5396875 38.04296875 -40.6496875 38.04296875 -63.4296875 38.04296875 Z " fill="#ffffff" transform="translate(193.4296875,68.95703125)"/>
<path d="M0 0 C1.41703593 1.03405325 2.81432903 2.09586892 4.1875 3.1875 C4.80238281 3.66574219 5.41726563 4.14398438 6.05078125 4.63671875 C12.77552713 10.55628442 18.50690147 21.15838181 19.38037109 30.17944336 C19.92176029 44.27688984 18.62310266 55.97648384 9.13671875 67.19140625 C-0.38855353 76.94574319 -11.00989509 82.09172436 -24.625 82.5 C-37.72348963 82.20079592 -48.15173653 77.75027783 -57.6875 68.75 C-66.42304586 59.36660265 -70.19438907 47.9375466 -70.0234375 35.21875 C-69.18791252 23.21194662 -64.21454965 12.78494615 -55.8125 4.1875 C-39.25773994 -8.70642271 -18.21125774 -11.41646914 0 0 Z M-45.8125 17.1875 C-51.66364383 24.59308304 -54.65748326 31.55469083 -53.8125 41.1875 C-51.53719546 50.65409551 -46.78863901 57.57728499 -38.8125 63.1875 C-32.02619072 66.66013394 -24.56714493 67.44733855 -17.203125 65.49609375 C-8.30684345 62.27456149 -3.10966699 57.58173738 1.2421875 49.23828125 C4.30464783 42.59451401 4.38714936 33.91715661 2.1875 26.9375 C-1.4581832 18.85880295 -7.75834884 13.46376488 -15.8125 10.1875 C-26.00747985 6.78917338 -38.27533193 9.44096615 -45.8125 17.1875 Z " fill="#ffffff" transform="translate(382.8125,184.8125)"/>
</svg>
