<?xml version="1.0" encoding="UTF-8"?>
<svg version="1.1" xmlns="http://www.w3.org/2000/svg" width="64" height="64">
<path d="M0 0 C6.0546875 -0.1953125 6.0546875 -0.1953125 8 0 C8.66 0.66 9.32 1.32 10 2 C10.66 2.165 11.32 2.33 12 2.5 C14 3 14 3 16 5 C16 5.99 16 6.98 16 8 C17.20398437 7.97679687 18.40796875 7.95359375 19.6484375 7.9296875 C21.22395215 7.91093137 22.79947348 7.89273101 24.375 7.875 C25.1690625 7.85824219 25.963125 7.84148438 26.78125 7.82421875 C28.85492015 7.80664527 30.92883241 7.89664832 33 8 C35.37046531 10.37046531 35.25183138 10.83404172 35.25878906 14.05078125 C35.26509338 14.88504639 35.27139771 15.71931152 35.27789307 16.57885742 C35.2738446 17.48095947 35.26979614 18.38306152 35.265625 19.3125 C35.26849518 20.69949097 35.26849518 20.69949097 35.27142334 22.11450195 C35.27278566 24.07145459 35.26908596 26.02841624 35.26074219 27.98535156 C35.25004334 30.9878359 35.26063591 33.98972187 35.2734375 36.9921875 C35.27211591 38.89062633 35.26955354 40.78906478 35.265625 42.6875 C35.26967346 43.58960205 35.27372192 44.4917041 35.27789307 45.42114258 C35.27158875 46.25540771 35.26528442 47.08967285 35.25878906 47.94921875 C35.25719788 48.68487061 35.25560669 49.42052246 35.25396729 50.1784668 C35 52 35 52 33 54 C30.93701172 54.22705078 30.93701172 54.22705078 28.4296875 54.1953125 C27.53378906 54.18886719 26.63789062 54.18242188 25.71484375 54.17578125 C24.77769531 54.15902344 23.84054688 54.14226563 22.875 54.125 C21.93011719 54.11597656 20.98523437 54.10695312 20.01171875 54.09765625 C17.67422708 54.07404522 15.33723877 54.04111516 13 54 C13.66 54.763125 14.32 55.52625 15 56.3125 C17 59 17 59 17 62 C8.42 62 -0.16 62 -9 62 C-8.07377893 58.29511572 -7.32789515 56.83395931 -5 54 C-5.89307861 54.01571045 -5.89307861 54.01571045 -6.80419922 54.03173828 C-9.49442343 54.07323949 -12.18458037 54.09930704 -14.875 54.125 C-15.81214844 54.14175781 -16.74929687 54.15851562 -17.71484375 54.17578125 C-18.61074219 54.18222656 -19.50664062 54.18867187 -20.4296875 54.1953125 C-21.25710449 54.20578613 -22.08452148 54.21625977 -22.93701172 54.22705078 C-25 54 -25 54 -27 52 C-27.25396729 50.1784668 -27.25396729 50.1784668 -27.25878906 47.94921875 C-27.26509338 47.11495361 -27.27139771 46.28068848 -27.27789307 45.42114258 C-27.2738446 44.51904053 -27.26979614 43.61693848 -27.265625 42.6875 C-27.26753845 41.76283936 -27.2694519 40.83817871 -27.27142334 39.88549805 C-27.27278566 37.92854541 -27.26908596 35.97158376 -27.26074219 34.01464844 C-27.25004334 31.0121641 -27.26063591 28.01027813 -27.2734375 25.0078125 C-27.27211591 23.10937367 -27.26955354 21.21093522 -27.265625 19.3125 C-27.26967346 18.41039795 -27.27372192 17.5082959 -27.27789307 16.57885742 C-27.27158875 15.74459229 -27.26528442 14.91032715 -27.25878906 14.05078125 C-27.25719788 13.31512939 -27.25560669 12.57947754 -27.25396729 11.8215332 C-27 10 -27 10 -25 8 C-22.0906442 7.85482256 -19.280054 7.81369204 -16.375 7.875 C-15.57320312 7.88402344 -14.77140625 7.89304687 -13.9453125 7.90234375 C-11.96341477 7.92593777 -9.98167019 7.96180935 -8 8 C-7.87625 7.38125 -7.7525 6.7625 -7.625 6.125 C-7 4 -7 4 -5 2 C-3.68 2 -2.36 2 -1 2 C-0.67 1.34 -0.34 0.68 0 0 Z M3 2 C2.3503125 2.7115625 2.3503125 2.7115625 1.6875 3.4375 C-0.44693733 5.41383086 -2.16307947 5.61663236 -5 6 C-5.12375 6.969375 -5.2475 7.93875 -5.375 8.9375 C-5.58125 9.948125 -5.7875 10.95875 -6 12 C-6.99 12.495 -6.99 12.495 -8 13 C-8 13.66 -8 14.32 -8 15 C-7.2884375 15.6496875 -7.2884375 15.6496875 -6.5625 16.3125 C-4.58616914 18.44693733 -4.38336764 20.16307947 -4 23 C-3.030625 23.12375 -2.06125 23.2475 -1.0625 23.375 C0.4534375 23.684375 0.4534375 23.684375 2 24 C2.33 24.66 2.66 25.32 3 26 C3.66 26 4.32 26 5 26 C5.433125 25.525625 5.86625 25.05125 6.3125 24.5625 C8.44693733 22.58616914 10.16307947 22.38336764 13 22 C13.12375 21.030625 13.2475 20.06125 13.375 19.0625 C13.684375 17.5465625 13.684375 17.5465625 14 16 C14.66 15.67 15.32 15.34 16 15 C16 14.34 16 13.68 16 13 C15.525625 12.566875 15.05125 12.13375 14.5625 11.6875 C12.58616914 9.55306267 12.38336764 7.83692053 12 5 C11.030625 4.87625 10.06125 4.7525 9.0625 4.625 C8.051875 4.41875 7.04125 4.2125 6 4 C5.67 3.34 5.34 2.68 5 2 C4.34 2 3.68 2 3 2 Z M-23.6574707 11.0144043 C-25.76469766 14.13098492 -25.42738497 17.42750434 -25.3984375 21.0625 C-25.40130768 21.85019775 -25.40417786 22.63789551 -25.40713501 23.44946289 C-25.40917522 25.11377685 -25.40364832 26.77811481 -25.39111328 28.44238281 C-25.37505809 30.99077947 -25.39096244 33.53759021 -25.41015625 36.0859375 C-25.40817381 37.7031285 -25.40433011 39.32031852 -25.3984375 40.9375 C-25.40451019 41.70006104 -25.41058289 42.46262207 -25.4168396 43.24829102 C-25.42760594 47.20837267 -25.42760594 47.20837267 -23.79238892 50.70059204 C-21.40102509 52.43423208 -19.87445344 52.38045376 -16.93359375 52.38818359 C-15.90242432 52.39764008 -14.87125488 52.40709656 -13.80883789 52.4168396 C-12.14002563 52.40773056 -12.14002563 52.40773056 -10.4375 52.3984375 C-9.29466553 52.40130768 -8.15183105 52.40417786 -6.97436523 52.40713501 C-4.55679835 52.40917757 -2.13921501 52.40363438 0.27832031 52.39111328 C3.98540085 52.37506321 7.691391 52.39095641 11.3984375 52.41015625 C13.74479408 52.40817385 16.09114998 52.40433025 18.4375 52.3984375 C19.5500415 52.40451019 20.66258301 52.41058289 21.80883789 52.4168396 C22.84000732 52.40738312 23.87117676 52.39792664 24.93359375 52.38818359 C25.84165771 52.38579681 26.74972168 52.38341003 27.68530273 52.38095093 C30.04753494 52.16956028 30.04753494 52.16956028 31.79238892 50.70059204 C33.86062006 47.78805052 33.42585869 44.38083748 33.3984375 40.9375 C33.40274277 39.75595337 33.40274277 39.75595337 33.40713501 38.55053711 C33.40917522 36.88622315 33.40364832 35.22188519 33.39111328 33.55761719 C33.37505809 31.00922053 33.39096244 28.46240979 33.41015625 25.9140625 C33.40817381 24.2968715 33.40433011 22.67968148 33.3984375 21.0625 C33.40451019 20.29993896 33.41058289 19.53737793 33.4168396 18.75170898 C33.37651591 14.64683043 33.37651591 14.64683043 31.6574707 11.0144043 C29.07185516 9.43195731 26.79833587 9.71618271 23.8125 9.8125 C22.18248047 9.85310547 22.18248047 9.85310547 20.51953125 9.89453125 C19.68808594 9.92933594 18.85664062 9.96414063 18 10 C18 10.66 18 11.32 18 12 C22.29 12 26.58 12 31 12 C31 23.22 31 34.44 31 46 C13.18 46 -4.64 46 -23 46 C-23 34.78 -23 23.56 -23 12 C-18.71 12 -14.42 12 -10 12 C-10 11.34 -10 10.68 -10 10 C-11.93681161 9.91892417 -13.8745934 9.86077525 -15.8125 9.8125 C-16.89144531 9.77769531 -17.97039063 9.74289062 -19.08203125 9.70703125 C-21.90536233 9.77720848 -21.90536233 9.77720848 -23.6574707 11.0144043 Z M-21 15 C-21.09993532 17.0605531 -21.13080906 19.1245259 -21.1328125 21.1875 C-21.13410156 22.44304688 -21.13539062 23.69859375 -21.13671875 24.9921875 C-21.13462402 25.64928711 -21.1325293 26.30638672 -21.13037109 26.98339844 C-21.12502234 28.99161335 -21.13031691 30.99960459 -21.13671875 33.0078125 C-21.13542969 34.26335938 -21.13414063 35.51890625 -21.1328125 36.8125 C-21.13168457 37.97394531 -21.13055664 39.13539062 -21.12939453 40.33203125 C-21.30337474 42.92063284 -21.30337474 42.92063284 -20 44 C-18.50129952 44.09831146 -16.99801461 44.12798456 -15.49609375 44.12939453 C-14.53840088 44.13254669 -13.58070801 44.13569885 -12.59399414 44.13894653 C-11.03152954 44.13591019 -11.03152954 44.13591019 -9.4375 44.1328125 C-8.37587646 44.13376923 -7.31425293 44.13472595 -6.22045898 44.13571167 C-3.97086528 44.13639364 -1.72126963 44.13453819 0.52832031 44.13037109 C3.98507071 44.1250231 7.44169117 44.13031554 10.8984375 44.13671875 C13.07812529 44.13605797 15.257813 44.13477682 17.4375 44.1328125 C18.47914307 44.13483673 19.52078613 44.13686096 20.59399414 44.13894653 C22.03053345 44.13421829 22.03053345 44.13421829 23.49609375 44.12939453 C24.34357178 44.12859894 25.1910498 44.12780334 26.06420898 44.12698364 C28.0065713 44.21319708 28.0065713 44.21319708 29 43 C29.09993532 40.9394469 29.13080906 38.8754741 29.1328125 36.8125 C29.13410156 35.55695312 29.13539062 34.30140625 29.13671875 33.0078125 C29.13462402 32.35071289 29.1325293 31.69361328 29.13037109 31.01660156 C29.12502234 29.00838665 29.13031691 27.00039541 29.13671875 24.9921875 C29.13542969 23.73664062 29.13414063 22.48109375 29.1328125 21.1875 C29.13112061 19.44533203 29.13112061 19.44533203 29.12939453 17.66796875 C29.30337474 15.07936716 29.30337474 15.07936716 28 14 C26.31391034 13.92794489 24.62499341 13.91613932 22.9375 13.9375 C22.01839844 13.94652344 21.09929688 13.95554687 20.15234375 13.96484375 C19.44207031 13.97644531 18.73179688 13.98804688 18 14 C18 15.32 18 16.64 18 18 C20.31 18 22.62 18 25 18 C25 19.98 25 21.96 25 24 C25.66 24 26.32 24 27 24 C27 25.98 27 27.96 27 30 C25.02 30 23.04 30 21 30 C21 28.02 21 26.04 21 24 C21.66 24 22.32 24 23 24 C23 22.68 23 21.36 23 20 C20.69 20 18.38 20 16 20 C14.55022106 22.34112451 13.95685589 23.5796929 14.2421875 26.359375 C14.45101562 27.14828125 14.65984375 27.9371875 14.875 28.75 C15.07867187 29.54921875 15.28234375 30.3484375 15.4921875 31.171875 C15.74355469 32.07679687 15.74355469 32.07679687 16 33 C16.66 33 17.32 33 18 33 C18 34.98 18 36.96 18 39 C16.02 39 14.04 39 12 39 C12 37.02 12 35.04 12 33 C12.66 33 13.32 33 14 33 C13.22969878 29.51190809 13.22969878 29.51190809 12 26 C11.01 25.67 10.02 25.34 9 25 C8.67 25.99 8.34 26.98 8 28 C7.01 28 6.02 28 5 28 C5 28.99 5 29.98 5 31 C5.66 31 6.32 31 7 31 C7 32.98 7 34.96 7 37 C5.02 37 3.04 37 1 37 C1 35.02 1 33.04 1 31 C1.66 31 2.32 31 3 31 C3 30.01 3 29.02 3 28 C2.01 28 1.02 28 0 28 C-0.33 27.01 -0.66 26.02 -1 25 C-1.99 25.33 -2.98 25.66 -4 26 C-5.22969878 29.51190809 -5.22969878 29.51190809 -6 33 C-5.34 33 -4.68 33 -4 33 C-4 34.98 -4 36.96 -4 39 C-5.98 39 -7.96 39 -10 39 C-10 37.02 -10 35.04 -10 33 C-9.34 33 -8.68 33 -8 33 C-7.60777895 31.58800422 -7.23688941 30.17007236 -6.875 28.75 C-6.66617187 27.96109375 -6.45734375 27.1721875 -6.2421875 26.359375 C-5.95685589 23.5796929 -6.55022106 22.34112451 -8 20 C-10.31 20 -12.62 20 -15 20 C-15 21.32 -15 22.64 -15 24 C-14.34 24 -13.68 24 -13 24 C-13 25.98 -13 27.96 -13 30 C-14.98 30 -16.96 30 -19 30 C-19 28.02 -19 26.04 -19 24 C-18.34 24 -17.68 24 -17 24 C-17 22.02 -17 20.04 -17 18 C-14.69 18 -12.38 18 -10 18 C-10 16.68 -10 15.36 -10 14 C-11.64574566 13.97311849 -13.29161413 13.95365877 -14.9375 13.9375 C-16.31228516 13.92009766 -16.31228516 13.92009766 -17.71484375 13.90234375 C-19.96593327 13.74050951 -19.96593327 13.74050951 -21 15 Z M-2.5 55.875 C-4.19222773 57.83880904 -4.19222773 57.83880904 -4 60 C1.28 60 6.56 60 12 60 C10.31622777 56.10540926 10.31622777 56.10540926 8 54 C2.3221563 53.3410727 2.3221563 53.3410727 -2.5 55.875 Z " fill="#FFFFFF" transform="translate(28,1)"/>
<path d="M0 0 C2 1 2 1 3 3 C3.51981506 6.56444611 3.63102777 9.73794446 2 13 C-1.26205554 14.63102777 -4.43555389 14.51981506 -8 14 C-10 13 -10 13 -11 11 C-11.51981506 7.43555389 -11.63102777 4.26205554 -10 1 C-6.73794446 -0.63102777 -3.56444611 -0.51981506 0 0 Z M-8 4 C-8.16666667 7 -8.16666667 7 -8 10 C-6.94689723 11.27003323 -6.94689723 11.27003323 -4.5625 11.1875 C-1.83265325 11.26839983 -1.83265325 11.26839983 0 9 C0.2500773 6.45809998 0.2500773 6.45809998 0 4 C-1.11836224 2.65595225 -1.11836224 2.65595225 -4 2.875 C-6.88163776 2.65595225 -6.88163776 2.65595225 -8 4 Z " fill="#FFFFFF" transform="translate(36,8)"/>
<path d="M0 0 C0.66 0 1.32 0 2 0 C2 0.66 2 1.32 2 2 C1.34 2 0.68 2 0 2 C0 1.34 0 0.68 0 0 Z " fill="#FFFFFF" transform="translate(31,49)"/>
</svg>
