<?xml version="1.0" encoding="UTF-8"?>
<svg version="1.1" xmlns="http://www.w3.org/2000/svg" width="64" height="64">
<path d="M0 0 C2.609375 1.57421875 2.609375 1.57421875 4.625 3.9375 C5.8873562 9.15918957 5.18947011 14.65656856 4.625 19.9375 C2.975 20.5975 1.325 21.2575 -0.375 21.9375 C0.285 23.05125 0.945 24.165 1.625 25.3125 C3.625 28.6875 3.625 28.6875 3.625 30.9375 C4.181875 30.586875 4.73875 30.23625 5.3125 29.875 C8.25863581 28.68062062 9.57919316 29.11661244 12.625 29.9375 C15.046875 31.09375 15.046875 31.09375 17.375 32.4375 C18.54289062 33.10265625 18.54289062 33.10265625 19.734375 33.78125 C21.625 34.9375 21.625 34.9375 22.625 35.9375 C22.69825168 38.80017567 22.71738205 41.638219 22.6875 44.5 C22.68298828 45.30630859 22.67847656 46.11261719 22.67382812 46.94335938 C22.66200518 48.94143756 22.64406914 50.93947783 22.625 52.9375 C20.90343904 53.95053762 19.17238194 54.94744848 17.4375 55.9375 C16.47457031 56.494375 15.51164062 57.05125 14.51953125 57.625 C11.44837828 59.01758758 9.93449675 59.44426669 6.625 58.9375 C3.73046875 57.6171875 3.73046875 57.6171875 0.8125 55.8125 C-0.16332031 55.23242188 -1.13914063 54.65234375 -2.14453125 54.0546875 C-4.375 51.9375 -4.375 51.9375 -4.69921875 48.6953125 C-4.59222656 47.78523438 -4.48523437 46.87515625 -4.375 45.9375 C-7.675 45.9375 -10.975 45.9375 -14.375 45.9375 C-14.21 46.824375 -14.045 47.71125 -13.875 48.625 C-14.375 51.9375 -14.375 51.9375 -16.05078125 53.37890625 C-18.12324081 54.64814565 -20.22615231 55.80350007 -22.375 56.9375 C-23.365 57.5975 -24.355 58.2575 -25.375 58.9375 C-31.67585292 58.81148294 -36.15194207 56.14713424 -41.375 52.9375 C-42.56453562 41.06857796 -42.56453562 41.06857796 -41.375 35.9375 C-37.5256144 31.37689459 -32.16971048 29.73035735 -26.375 28.9375 C-24.0625 29.875 -24.0625 29.875 -22.375 30.9375 C-21.941875 29.82375 -21.941875 29.82375 -21.5 28.6875 C-20.55197356 26.37010203 -19.52654089 24.15832885 -18.375 21.9375 C-20.025 21.2775 -21.675 20.6175 -23.375 19.9375 C-24.79974496 8.94849489 -24.79974496 8.94849489 -23.375 3.9375 C-16.44444905 -3.54309467 -8.9056627 -4.1586503 0 0 Z M-16.375 4.9375 C-14.5517036 7.26726763 -13.37585972 7.93723834 -10.5 8.8125 C-6.80996721 8.96010131 -5.30521379 8.09206896 -2.375 5.9375 C-4.20501526 3.91141168 -5.82892742 2.22873871 -8.25 0.9375 C-11.675911 0.9375 -13.7160717 2.94330377 -16.375 4.9375 Z M-19.375 8.9375 C-19.375 11.9075 -19.375 14.8775 -19.375 17.9375 C-15.415 19.9175 -15.415 19.9175 -11.375 21.9375 C-10.95965038 17.3990847 -10.95965038 17.3990847 -11.375 12.9375 C-14.88125623 9.76337952 -14.88125623 9.76337952 -19.375 8.9375 Z M-3.9375 10.9375 C-5.071875 11.5975 -6.20625 12.2575 -7.375 12.9375 C-7.375 15.9075 -7.375 18.8775 -7.375 21.9375 C-4.735 20.6175 -2.095 19.2975 0.625 17.9375 C0.625 14.9675 0.625 11.9975 0.625 8.9375 C-1.11706308 8.9375 -2.46095092 10.0784169 -3.9375 10.9375 Z M-15.375 24.9375 C-16.035 26.05125 -16.695 27.165 -17.375 28.3125 C-17.74625 28.93898438 -18.1175 29.56546875 -18.5 30.2109375 C-19.52568348 31.91222667 -19.52568348 31.91222667 -19.375 33.9375 C-18.735625 34.14375 -18.09625 34.35 -17.4375 34.5625 C-15.375 35.9375 -15.375 35.9375 -14.625 39.0625 C-14.5425 40.01125 -14.46 40.96 -14.375 41.9375 C-11.075 41.9375 -7.775 41.9375 -4.375 41.9375 C-4.2925 40.98875 -4.21 40.04 -4.125 39.0625 C-3.375 35.9375 -3.375 35.9375 -1.3125 34.5625 C-0.673125 34.35625 -0.03375 34.15 0.625 33.9375 C-0.57399698 30.8543649 -1.85200477 27.87470508 -3.375 24.9375 C-4.6125 25.123125 -5.85 25.30875 -7.125 25.5 C-10.13779577 25.88461223 -12.47510827 26.0249594 -15.375 24.9375 Z M-32.1875 34.8125 C-33.7653125 35.864375 -33.7653125 35.864375 -35.375 36.9375 C-33.00480319 39.68193841 -30.96044771 41.20411297 -27.375 41.9375 C-24.77654952 40.87326976 -22.73295794 39.50947196 -20.375 37.9375 C-24.01218076 33.72602755 -27.15694458 31.93644508 -32.1875 34.8125 Z M4.8125 34.8125 C3.2346875 35.864375 3.2346875 35.864375 1.625 36.9375 C4.31341859 39.18995881 6.27141875 40.81963958 9.625 41.9375 C11.5052101 41.1914302 11.5052101 41.1914302 13.3125 40 C14.9521875 38.9790625 14.9521875 38.9790625 16.625 37.9375 C12.98781924 33.72602755 9.84305542 31.93644508 4.8125 34.8125 Z M-38.375 40.9375 C-38.375 43.9075 -38.375 46.8775 -38.375 49.9375 C-33.92 51.9175 -33.92 51.9175 -29.375 53.9375 C-29.375 50.9675 -29.375 47.9975 -29.375 44.9375 C-31.045625 43.9475 -31.045625 43.9475 -32.75 42.9375 C-33.37648438 42.56625 -34.00296875 42.195 -34.6484375 41.8125 C-36.34972667 40.78681652 -36.34972667 40.78681652 -38.375 40.9375 Z M-23 42.9375 C-24.11375 43.5975 -25.2275 44.2575 -26.375 44.9375 C-26.375 47.9075 -26.375 50.8775 -26.375 53.9375 C-24.4259375 52.9784375 -24.4259375 52.9784375 -22.4375 52 C-21.70660156 51.64035156 -20.97570312 51.28070313 -20.22265625 50.91015625 C-18.41250973 50.07378173 -18.41250973 50.07378173 -17.375 48.9375 C-17.30351801 47.58506083 -17.29100546 46.22915633 -17.3125 44.875 C-17.333125 43.575625 -17.35375 42.27625 -17.375 40.9375 C-19.83801423 40.9375 -20.89563278 41.69046757 -23 42.9375 Z M-1.375 40.9375 C-1.95218018 45.00046957 -1.95218018 45.00046957 -1.375 48.9375 C0.86456182 51.04679648 4.38222651 53.9375 7.625 53.9375 C7.625 50.9675 7.625 47.9975 7.625 44.9375 C5.954375 43.9475 5.954375 43.9475 4.25 42.9375 C3.62351562 42.56625 2.99703125 42.195 2.3515625 41.8125 C0.65027333 40.78681652 0.65027333 40.78681652 -1.375 40.9375 Z M14 42.9375 C12.88625 43.5975 11.7725 44.2575 10.625 44.9375 C10.625 47.9075 10.625 50.8775 10.625 53.9375 C13.72843799 52.73060745 16.63693893 51.43153054 19.625 49.9375 C19.625 46.9675 19.625 43.9975 19.625 40.9375 C17.16198577 40.9375 16.10436722 41.69046757 14 42.9375 Z " fill="#FFFFFF" transform="translate(41.375,4.0625)"/>
</svg>
