<?xml version="1.0" encoding="UTF-8"?>
<svg version="1.1" xmlns="http://www.w3.org/2000/svg" width="64" height="64">
<path d="M0 0 C2.625 1.8125 2.625 1.8125 5 4 C6.20925027 4.58477967 7.44052354 5.12569731 8.6875 5.625 C12 7 12 7 14 9 C14.68016194 16.02834008 14.68016194 16.02834008 12.25 19.5 C10 21 10 21 6 21 C6 21.99 6 22.98 6 24 C8.31 24 10.62 24 13 24 C13.495 26.475 13.495 26.475 14 29 C15.98 29.66 17.96 30.32 20 31 C20 34.63 20 38.26 20 42 C15.9772556 44.0113722 14.6632708 44.1849389 10.375 44 C7.53612762 43.83273946 7.53612762 43.83273946 5 44 C4.34 44.66 3.68 45.32 3 46 C0.25 46.265625 0.25 46.265625 -3 46.25 C-4.60875 46.25773437 -4.60875 46.25773437 -6.25 46.265625 C-9 46 -9 46 -11 44 C-13.77691771 43.85895021 -16.49644239 44.00523741 -19.2734375 44.125 C-22 44 -22 44 -26 42 C-26 38.37 -26 34.74 -26 31 C-24.02 30.34 -22.04 29.68 -20 29 C-19.67 27.35 -19.34 25.7 -19 24 C-16.69 24 -14.38 24 -12 24 C-12 23.01 -12 22.02 -12 21 C-12.94875 21.04125 -13.8975 21.0825 -14.875 21.125 C-18 21 -18 21 -20 19 C-20.34467858 15.9963724 -20.55491621 13.90350097 -20 11 C-17.75 8.3125 -17.75 8.3125 -15 6 C-14.278125 5.0925 -13.55625 4.185 -12.8125 3.25 C-9.40412193 -0.98109002 -5.11080921 -0.6600347 0 0 Z M-10.375 4.8125 C-12.17066872 6.99221829 -12.17066872 6.99221829 -13 10 C-15.0625 11.6875 -15.0625 11.6875 -17 13 C-16.65555119 15.47266765 -16.65555119 15.47266765 -16 18 C-12.38521286 19.80739357 -8.16767454 19.22756068 -4.1875 19.25 C-2.83301758 19.2809375 -2.83301758 19.2809375 -1.45117188 19.3125 C5.29316949 19.37175852 5.29316949 19.37175852 11 16 C11.66680368 12.95720628 11.66680368 12.95720628 11 10 C8.25194019 7.86337681 8.25194019 7.86337681 5.5625 7.625 C3 7 3 7 1.125 4.9375 C-0.96097103 2.67076714 -0.96097103 2.67076714 -4.5 2.5 C-8.0245001 2.71293283 -8.0245001 2.71293283 -10.375 4.8125 Z M-10 21 C-10 22.98 -10 24.96 -10 27 C-12.31 27 -14.62 27 -17 27 C-17 27.66 -17 28.32 -17 29 C-15.576875 29.433125 -15.576875 29.433125 -14.125 29.875 C-11 31 -11 31 -9 33 C-7.35 32.67 -5.7 32.34 -4 32 C-4 28.37 -4 24.74 -4 21 C-5.98 21 -7.96 21 -10 21 Z M-2 21 C-2 24.63 -2 28.26 -2 32 C0.97 32.495 0.97 32.495 4 33 C4.33 32.34 4.66 31.68 5 31 C6.97888961 30.27306096 8.97954558 29.60183749 11 29 C11 28.34 11 27.68 11 27 C8.69 26.67 6.38 26.34 4 26 C3.67 24.35 3.34 22.7 3 21 C1.35 21 -0.3 21 -2 21 Z M-23 34 C-20.23749964 35.38125018 -18.05268901 35.19079306 -15 35 C-14.34 34.34 -13.68 33.68 -13 33 C-16.65430271 31.17284864 -20.09022516 31.09022516 -23 34 Z M7 34 C9.76250036 35.38125018 11.94731099 35.19079306 15 35 C15.66 34.34 16.32 33.68 17 33 C13.34569729 31.17284864 9.90977484 31.09022516 7 34 Z M-7 35 C-7 35.66 -7 36.32 -7 37 C-4.36 37 -1.72 37 1 37 C1 36.34 1 35.68 1 35 C-1.64 35 -4.28 35 -7 35 Z M-24 37 C-23.67 37.99 -23.34 38.98 -23 40 C-20.22899606 41.38550197 -18.0665294 41.1877467 -15 41 C-14.01 40.34 -13.02 39.68 -12 39 C-12 38.34 -12 37.68 -12 37 C-15.96 37 -19.92 37 -24 37 Z M6 37 C6.33 37.99 6.66 38.98 7 40 C9.77100394 41.38550197 11.9334706 41.1877467 15 41 C15.99 40.34 16.98 39.68 18 39 C18 38.34 18 37.68 18 37 C14.04 37 10.08 37 6 37 Z M-9 40 C-9 40.66 -9 41.32 -9 42 C-6.75487738 43.12256131 -5.48543351 43.13413762 -3 43.125 C-2.29875 43.12757812 -1.5975 43.13015625 -0.875 43.1328125 C1.09153775 43.11377236 1.09153775 43.11377236 3 42 C3 41.34 3 40.68 3 40 C-0.96 40 -4.92 40 -9 40 Z " fill="#A020F0" transform="translate(35,9)"/>
</svg>
