<?xml version="1.0" encoding="UTF-8"?>
<svg version="1.1" xmlns="http://www.w3.org/2000/svg" width="64" height="64">
<path d="M0 0 C1.2065625 0.0309375 1.2065625 0.0309375 2.4375 0.0625 C3.0625 1.9375 3.0625 1.9375 3.4375 4.0625 C2.7775 4.7225 2.1175 5.3825 1.4375 6.0625 C-1.6015625 5.8203125 -1.6015625 5.8203125 -5.1875 5.1875 C-6.97027344 4.88199219 -6.97027344 4.88199219 -8.7890625 4.5703125 C-9.70429687 4.40273438 -10.61953125 4.23515625 -11.5625 4.0625 C-11.5625 5.3825 -11.5625 6.7025 -11.5625 8.0625 C-5.28457522 10.34538174 0.7901679 10.51334429 7.4375 10.0625 C7.7675 9.7325 8.0975 9.4025 8.4375 9.0625 C10.10367115 9.02186168 11.77138095 9.019779 13.4375 9.0625 C13.4375 10.7125 13.4375 12.3625 13.4375 14.0625 C11.78135343 14.44468767 10.11292976 14.77645102 8.4375 15.0625 C7.9425 14.5675 7.9425 14.5675 7.4375 14.0625 C5.75566052 13.82962992 4.0662584 13.64985834 2.375 13.5 C1.45589844 13.41621094 0.53679688 13.33242188 -0.41015625 13.24609375 C-1.12042969 13.18550781 -1.83070312 13.12492187 -2.5625 13.0625 C-2.5625 14.0525 -2.5625 15.0425 -2.5625 16.0625 C-1.9025 16.0625 -1.2425 16.0625 -0.5625 16.0625 C-0.5625 17.0525 -0.5625 18.0425 -0.5625 19.0625 C-0.005625 18.711875 0.55125 18.36125 1.125 18 C3.97636783 16.84404007 5.52267222 17.25282562 8.4375 18.0625 C7.9425 20.5375 7.9425 20.5375 7.4375 23.0625 C4.67473823 22.53981534 2.1114124 21.95380413 -0.5625 21.0625 C-0.5625 22.0525 -0.5625 23.0425 -0.5625 24.0625 C-1.2225 24.0625 -1.8825 24.0625 -2.5625 24.0625 C-2.5625 25.0525 -2.5625 26.0425 -2.5625 27.0625 C4.00232242 26.4906627 4.00232242 26.4906627 10.5 25.4375 C11.139375 25.31375 11.77875 25.19 12.4375 25.0625 C13.4375 26.0625 13.4375 26.0625 13.5 28.625 C13.479375 29.429375 13.45875 30.23375 13.4375 31.0625 C11.77138095 31.105221 10.10367115 31.10313832 8.4375 31.0625 C8.1075 30.7325 7.7775 30.4025 7.4375 30.0625 C0.7901679 29.61165571 -5.28457522 29.77961826 -11.5625 32.0625 C-11.5625 33.3825 -11.5625 34.7025 -11.5625 36.0625 C-10.14547487 35.92019192 -8.7288904 35.77349254 -7.3125 35.625 C-6.52359375 35.54378906 -5.7346875 35.46257813 -4.921875 35.37890625 C-2.56712654 35.12759603 -2.56712654 35.12759603 -0.390625 34.40234375 C0.21265625 34.29019531 0.8159375 34.17804687 1.4375 34.0625 C2.0975 34.7225 2.7575 35.3825 3.4375 36.0625 C3.0625 38.1875 3.0625 38.1875 2.4375 40.0625 C0.77138095 40.105221 -0.89632885 40.10313832 -2.5625 40.0625 C-2.8925 39.7325 -3.2225 39.4025 -3.5625 39.0625 C-5.41141946 38.82886119 -7.26738031 38.64946365 -9.125 38.5 C-10.13691406 38.41621094 -11.14882813 38.33242188 -12.19140625 38.24609375 C-12.97386719 38.18550781 -13.75632813 38.12492187 -14.5625 38.0625 C-14.5625 36.0825 -14.5625 34.1025 -14.5625 32.0625 C-15.5525 32.0625 -16.5425 32.0625 -17.5625 32.0625 C-18.2121875 32.743125 -18.2121875 32.743125 -18.875 33.4375 C-23.38342487 37.77894617 -29.49191559 37.3239432 -35.3671875 37.42578125 C-38.5625 37.0625 -38.5625 37.0625 -46.5625 34.0625 C-46.5625 24.1625 -46.5625 14.2625 -46.5625 4.0625 C-38.48660502 0.60140215 -29.84289509 -0.94912165 -21.3125 2.3125 C-18.56440656 4.06128674 -17.51785501 4.98413387 -16.5625 8.0625 C-15.9025 8.0625 -15.2425 8.0625 -14.5625 8.0625 C-14.5625 6.0825 -14.5625 4.1025 -14.5625 2.0625 C-13.78003906 2.00191406 -12.99757812 1.94132813 -12.19140625 1.87890625 C-10.67353516 1.75322266 -10.67353516 1.75322266 -9.125 1.625 C-8.11566406 1.54378906 -7.10632812 1.46257813 -6.06640625 1.37890625 C-3.14883217 1.01022684 -2.96221017 0.07224903 0 0 Z M-0.5625 2.0625 C0.4375 4.0625 0.4375 4.0625 0.4375 4.0625 Z M-44.5625 6.0625 C-44.5625 6.7225 -44.5625 7.3825 -44.5625 8.0625 C-40.29402683 10.13505344 -36.71593995 10.33123263 -32 10.3125 C-30.69933594 10.31765625 -29.39867187 10.3228125 -28.05859375 10.328125 C-24.89420587 10.08770223 -23.18892478 9.74661971 -20.5625 8.0625 C-20.8925 7.0725 -21.2225 6.0825 -21.5625 5.0625 C-29.89390746 1.83195425 -36.52557131 2.61810199 -44.5625 6.0625 Z M-14.5625 10.0625 C-14.8925 10.7225 -15.2225 11.3825 -15.5625 12.0625 C-18.125 12.6875 -18.125 12.6875 -20.5625 13.0625 C-20.5625 14.7125 -20.5625 16.3625 -20.5625 18.0625 C-21.2225 18.0625 -21.8825 18.0625 -22.5625 18.0625 C-22.5625 19.3825 -22.5625 20.7025 -22.5625 22.0625 C-21.9025 22.0625 -21.2425 22.0625 -20.5625 22.0625 C-20.5625 23.7125 -20.5625 25.3625 -20.5625 27.0625 C-19.758125 27.18625 -18.95375 27.31 -18.125 27.4375 C-16.8565625 27.746875 -16.8565625 27.746875 -15.5625 28.0625 C-15.2325 28.7225 -14.9025 29.3825 -14.5625 30.0625 C-13.5725 30.0625 -12.5825 30.0625 -11.5625 30.0625 C-11.5625 29.4025 -11.5625 28.7425 -11.5625 28.0625 C-10.3559375 28.0934375 -10.3559375 28.0934375 -9.125 28.125 C-6.62895115 28.35883621 -6.62895115 28.35883621 -5.5625 27.0625 C-5.52186168 25.39632885 -5.519779 23.72861905 -5.5625 22.0625 C-4.5725 22.0625 -3.5825 22.0625 -2.5625 22.0625 C-2.5625 20.7425 -2.5625 19.4225 -2.5625 18.0625 C-3.5525 18.0625 -4.5425 18.0625 -5.5625 18.0625 C-5.5625 16.4125 -5.5625 14.7625 -5.5625 13.0625 C-7.63803648 12.5090236 -9.40615964 12.0625 -11.5625 12.0625 C-11.5625 11.4025 -11.5625 10.7425 -11.5625 10.0625 C-12.5525 10.0625 -13.5425 10.0625 -14.5625 10.0625 Z M-44.5625 11.0625 C-44.5625 12.7125 -44.5625 14.3625 -44.5625 16.0625 C-38.82346483 19.64939698 -31.95362707 19.46854795 -25.5625 18.0625 C-24.9025 17.4025 -24.2425 16.7425 -23.5625 16.0625 C-23.5625 14.7425 -23.5625 13.4225 -23.5625 12.0625 C-24.95662109 12.07990234 -24.95662109 12.07990234 -26.37890625 12.09765625 C-38.65740334 12.18728032 -38.65740334 12.18728032 -44.5625 11.0625 Z M-44.5625 19.0625 C-44.5625 20.7125 -44.5625 22.3625 -44.5625 24.0625 C-39.62474967 26.83218064 -33.94706975 27.6555485 -28.35546875 26.67578125 C-26.73522132 26.21049635 -25.14370717 25.64685917 -23.5625 25.0625 C-24.2225 23.4125 -24.8825 21.7625 -25.5625 20.0625 C-26.74005859 20.07990234 -26.74005859 20.07990234 -27.94140625 20.09765625 C-33.59969775 20.14625507 -38.99128878 20.07544749 -44.5625 19.0625 Z M-44.5625 27.0625 C-44.5625 28.7125 -44.5625 30.3625 -44.5625 32.0625 C-37.7327705 35.04734474 -31.88385087 35.59594829 -24.5625 34.0625 C-22.31569312 33.08900836 -22.31569312 33.08900836 -20.5625 32.0625 C-21.2225 30.7425 -21.8825 29.4225 -22.5625 28.0625 C-23.64789062 28.07410156 -24.73328125 28.08570312 -25.8515625 28.09765625 C-27.29687327 28.10704138 -28.74218591 28.11614081 -30.1875 28.125 C-31.25677734 28.13756836 -31.25677734 28.13756836 -32.34765625 28.15039062 C-36.53594438 28.16960296 -40.4353462 27.8892327 -44.5625 27.0625 Z M-0.5625 36.0625 C0.4375 38.0625 0.4375 38.0625 0.4375 38.0625 Z " fill="#A020F0" transform="translate(48.5625,11.9375)"/>
<path d="M0 0 C2 2 2 2 2.375 4.9375 C2 8 2 8 0.3125 9.9375 C-2.61449654 11.28233625 -3.98584989 11.03115662 -7 10 C-9 8 -9 8 -9.375 5.0625 C-9 2 -9 2 -7.3125 0.0625 C-4.38550346 -1.28233625 -3.01415011 -1.03115662 0 0 Z M-5 2 C-5.66 3.32 -6.32 4.64 -7 6 C-6.34 6.66 -5.68 7.32 -5 8 C-2.89179203 7.6814823 -2.89179203 7.6814823 -1 7 C-1 5.68 -1 4.36 -1 3 C-2.32 2.67 -3.64 2.34 -5 2 Z " fill="#A020F0" transform="translate(39,27)"/>
<path d="M0 0 C0.99 0 1.98 0 3 0 C3 0.99 3 1.98 3 3 C2.01 2.67 1.02 2.34 0 2 C0 1.34 0 0.68 0 0 Z " fill="#A020F0" transform="translate(5,41)"/>
<path d="M0 0 C0.99 0 1.98 0 3 0 C3 0.99 3 1.98 3 3 C2.01 2.67 1.02 2.34 0 2 C0 1.34 0 0.68 0 0 Z " fill="#A020F0" transform="translate(5,33)"/>
<path d="M0 0 C0.99 0 1.98 0 3 0 C3 0.99 3 1.98 3 3 C2.01 2.67 1.02 2.34 0 2 C0 1.34 0 0.68 0 0 Z " fill="#A020F0" transform="translate(5,25)"/>
</svg>
