<?xml version="1.0" encoding="UTF-8"?>
<svg version="1.1" xmlns="http://www.w3.org/2000/svg" width="64" height="64">
<path d="M0 0 C5.28 0 10.56 0 16 0 C16.66 2.31 17.32 4.62 18 7 C21.67648768 9.77978337 24.10346628 10.05182753 28.5 9.5625 C30.8046875 9.4609375 30.8046875 9.4609375 33 10 C35.82241056 12.95843035 37.69957008 16.12698045 39 20 C38.8984375 22.70703125 38.8984375 22.70703125 38 25 C36.02 25.99 36.02 25.99 34 27 C34 30.3 34 33.6 34 37 C35.32 37.66 36.64 38.32 38 39 C39.19501225 42.0498791 39.14589007 43.56550132 38.1015625 46.67578125 C36.57059247 49.4096563 35.16701577 51.72854974 33 54 C30.54061749 54.60390531 28.69025117 54.45867467 26.18359375 54.1796875 C22.68475347 53.89176862 20.75056647 54.9203034 18 57 C17.34 59.31 16.68 61.62 16 64 C10.72 64 5.44 64 0 64 C-0.99 60.535 -0.99 60.535 -2 57 C-5.67648768 54.22021663 -8.10346628 53.94817247 -12.5 54.4375 C-14.8046875 54.5390625 -14.8046875 54.5390625 -17 54 C-19.82241056 51.04156965 -21.69957008 47.87301955 -23 44 C-22.8984375 41.29296875 -22.8984375 41.29296875 -22 39 C-20.68 38.34 -19.36 37.68 -18 37 C-18 33.7 -18 30.4 -18 27 C-19.32 26.34 -20.64 25.68 -22 25 C-23.18344818 21.96644507 -23.13784752 20.42726495 -22.13671875 17.32421875 C-20.60723166 14.54145922 -19.23776016 12.26378063 -17 10 C-14.27521024 9.40124047 -12.10696462 9.54568096 -9.33984375 9.8203125 C-6.83980725 10.17118981 -6.83980725 10.17118981 -4 8.9375 C-1.25601937 6.60199638 -1.25601937 6.60199638 0 0 Z M3 2 C1.52952664 5.91063224 1.52952664 5.91063224 1 10 C-0.175625 10.185625 -0.175625 10.185625 -1.375 10.375 C-4.14057822 10.79117993 -4.14057822 10.79117993 -6 13 C-7.98828125 12.9140625 -7.98828125 12.9140625 -10.3125 12.625 C-12.72324382 12.45525681 -12.72324382 12.45525681 -15 13 C-17.71001562 15.71001562 -20 19.07799413 -20 23 C-19.3503125 23.4125 -18.700625 23.825 -18.03125 24.25 C-16 26 -16 26 -15.46875 28.8125 C-15.4790625 29.864375 -15.489375 30.91625 -15.5 32 C-15.4896875 33.051875 -15.479375 34.10375 -15.46875 35.1875 C-16 38 -16 38 -18.03125 39.875 C-18.6809375 40.24625 -19.330625 40.6175 -20 41 C-18.84414715 44.91211733 -17.64465038 47.8745041 -15 51 C-13.989375 50.7525 -12.97875 50.505 -11.9375 50.25 C-6.82472816 49.92537957 -5.2219005 51.26818203 -1 54 C-0.34 54 0.32 54 1 54 C1.144375 55.134375 1.28875 56.26875 1.4375 57.4375 C1.61171478 60.80777201 1.61171478 60.80777201 3 62 C4.68608966 62.07205511 6.37500659 62.08386068 8.0625 62.0625 C8.98160156 62.05347656 9.90070312 62.04445312 10.84765625 62.03515625 C11.55792969 62.02355469 12.26820312 62.01195312 13 62 C14.47047336 58.08936776 14.47047336 58.08936776 15 54 C15.9075 53.71125 16.815 53.4225 17.75 53.125 C20.87346622 52.16583271 20.87346622 52.16583271 23 50.8125 C25.87071335 49.6462727 28.04192467 50.32771015 31 51 C31.83878455 49.71186658 32.67086783 48.41936744 33.5 47.125 C33.9640625 46.40570313 34.428125 45.68640625 34.90625 44.9453125 C36.16336501 43.08139534 36.16336501 43.08139534 36 41 C35.02546875 40.38125 35.02546875 40.38125 34.03125 39.75 C32 38 32 38 31.46875 35.1875 C31.4790625 34.135625 31.489375 33.08375 31.5 32 C31.4896875 30.948125 31.479375 29.89625 31.46875 28.8125 C32 26 32 26 34.03125 24.125 C34.6809375 23.75375 35.330625 23.3825 36 23 C34.48727987 17.39257186 34.48727987 17.39257186 31 13 C28.71788432 12.84550474 26.50639435 12.9434785 24.22265625 13.05859375 C21.18931429 12.97862867 19.41320538 11.75505846 17 10 C16.34 10 15.68 10 15 10 C14.855625 8.865625 14.71125 7.73125 14.5625 6.5625 C14.38828522 3.19222799 14.38828522 3.19222799 13 2 C11.31391034 1.92794489 9.62499341 1.91613932 7.9375 1.9375 C7.01839844 1.94652344 6.09929688 1.95554688 5.15234375 1.96484375 C4.44207031 1.97644531 3.73179688 1.98804687 3 2 Z " fill="#FFFFFF" transform="translate(24,0)"/>
<path d="M0 0 C1.56640625 1.16796875 1.56640625 1.16796875 2.56640625 4.16796875 C3.55640625 4.93109375 4.54640625 5.69421875 5.56640625 6.48046875 C8.0111155 8.43741149 8.52775192 9.05200577 9.56640625 12.16796875 C9.56640625 15.50883305 9.23922656 17.27855184 7.56640625 20.16796875 C5.9200066 21.52624846 4.25344818 22.86051126 2.56640625 24.16796875 C2.13328125 25.18890625 2.13328125 25.18890625 1.69140625 26.23046875 C-0.13452188 29.37512274 -3.083645 30.25314974 -6.43359375 31.16796875 C-12.56798487 31.84956776 -17.39144008 30.92757959 -22.43359375 27.16796875 C-22.76359375 26.17796875 -23.09359375 25.18796875 -23.43359375 24.16796875 C-24.42359375 23.40484375 -25.41359375 22.64171875 -26.43359375 21.85546875 C-28.878303 19.89852601 -29.39493942 19.28393173 -30.43359375 16.16796875 C-30.43359375 12.82710445 -30.10641406 11.05738566 -28.43359375 8.16796875 C-26.7871941 6.80968904 -25.12063568 5.47542624 -23.43359375 4.16796875 C-23.14484375 3.48734375 -22.85609375 2.80671875 -22.55859375 2.10546875 C-17.93877789 -5.85088079 -6.65129632 -3.39723745 0 0 Z M-19.43359375 3.16796875 C-17.94859375 4.15796875 -17.94859375 4.15796875 -16.43359375 5.16796875 C-14.75935692 6.49178392 -13.0914816 7.82373536 -11.43359375 9.16796875 C-10.89734375 8.89984375 -10.36109375 8.63171875 -9.80859375 8.35546875 C-7.01692708 6.95963542 -4.22526042 5.56380208 -1.43359375 4.16796875 C-4.45392276 1.01035206 -5.70735463 0.21559099 -10.24609375 -0.08203125 C-14.05788288 -0.05425865 -16.33892292 0.84696563 -19.43359375 3.16796875 Z M-22.43359375 7.16796875 C-22.43359375 7.49796875 -22.43359375 7.82796875 -22.43359375 8.16796875 C-20.78359375 8.16796875 -19.13359375 8.16796875 -17.43359375 8.16796875 C-17.43359375 7.83796875 -17.43359375 7.50796875 -17.43359375 7.16796875 C-19.08359375 7.16796875 -20.73359375 7.16796875 -22.43359375 7.16796875 Z M-3.43359375 7.16796875 C-3.43359375 7.49796875 -3.43359375 7.82796875 -3.43359375 8.16796875 C-1.78359375 8.16796875 -0.13359375 8.16796875 1.56640625 8.16796875 C1.56640625 7.83796875 1.56640625 7.50796875 1.56640625 7.16796875 C-0.08359375 7.16796875 -1.73359375 7.16796875 -3.43359375 7.16796875 Z M-26.43359375 10.16796875 C-25.43359375 12.16796875 -25.43359375 12.16796875 -25.43359375 12.16796875 Z M4.56640625 10.16796875 C5.56640625 12.16796875 5.56640625 12.16796875 5.56640625 12.16796875 Z M-22.43359375 11.16796875 C-23.44470468 14.21710103 -23.44470468 14.21710103 -22.43359375 17.16796875 C-20.78359375 17.16796875 -19.13359375 17.16796875 -17.43359375 17.16796875 C-16.77359375 15.84796875 -16.11359375 14.52796875 -15.43359375 13.16796875 C-17.27243256 10.88068141 -17.27243256 10.88068141 -20.05859375 11.04296875 C-21.23421875 11.10484375 -21.23421875 11.10484375 -22.43359375 11.16796875 Z M-3.43359375 11.16796875 C-4.09359375 12.48796875 -4.75359375 13.80796875 -5.43359375 15.16796875 C-3.59475494 17.45525609 -3.59475494 17.45525609 -0.80859375 17.29296875 C-0.02484375 17.25171875 0.75890625 17.21046875 1.56640625 17.16796875 C2.57751718 14.11883647 2.57751718 14.11883647 1.56640625 11.16796875 C-0.08359375 11.16796875 -1.73359375 11.16796875 -3.43359375 11.16796875 Z M-27.43359375 13.16796875 C-26.43359375 15.16796875 -26.43359375 15.16796875 -26.43359375 15.16796875 Z M-11.43359375 13.16796875 C-11.43359375 13.82796875 -11.43359375 14.48796875 -11.43359375 15.16796875 C-10.77359375 15.16796875 -10.11359375 15.16796875 -9.43359375 15.16796875 C-9.43359375 14.50796875 -9.43359375 13.84796875 -9.43359375 13.16796875 C-10.09359375 13.16796875 -10.75359375 13.16796875 -11.43359375 13.16796875 Z M5.56640625 13.16796875 C6.56640625 15.16796875 6.56640625 15.16796875 6.56640625 15.16796875 Z M-26.43359375 16.16796875 C-25.43359375 18.16796875 -25.43359375 18.16796875 -25.43359375 18.16796875 Z M4.56640625 16.16796875 C5.56640625 18.16796875 5.56640625 18.16796875 5.56640625 18.16796875 Z M-16.43359375 23.16796875 C-17.42359375 23.82796875 -18.41359375 24.48796875 -19.43359375 25.16796875 C-15.70845494 27.96182286 -12.90016063 28.62705626 -8.37109375 28.47265625 C-5.59791917 28.03655218 -3.65514944 26.83413552 -1.43359375 25.16796875 C-2.42359375 24.83796875 -3.41359375 24.50796875 -4.43359375 24.16796875 C-4.43359375 23.17796875 -4.43359375 22.18796875 -4.43359375 21.16796875 C-2.45359375 21.16796875 -0.47359375 21.16796875 1.56640625 21.16796875 C1.56640625 20.83796875 1.56640625 20.50796875 1.56640625 20.16796875 C-0.74359375 19.83796875 -3.05359375 19.50796875 -5.43359375 19.16796875 C-5.43359375 20.15796875 -5.43359375 21.14796875 -5.43359375 22.16796875 C-6.05234375 21.67296875 -6.67109375 21.17796875 -7.30859375 20.66796875 C-11.43045861 17.75841708 -12.95892771 20.28653837 -16.43359375 23.16796875 Z M-22.43359375 20.16796875 C-22.43359375 20.49796875 -22.43359375 20.82796875 -22.43359375 21.16796875 C-20.78359375 21.16796875 -19.13359375 21.16796875 -17.43359375 21.16796875 C-17.43359375 20.83796875 -17.43359375 20.50796875 -17.43359375 20.16796875 C-19.08359375 20.16796875 -20.73359375 20.16796875 -22.43359375 20.16796875 Z " fill="#FFFFFF" transform="translate(42.43359375,17.83203125)"/>
</svg>
